<svg width="1240" height="55" viewBox="0 0 1240 55" fill="none" xmlns="http://www.w3.org/2000/svg">
<path d="M-0.000100948 1.11161H28.9078C32.0035 1.11161 34.794 1.72203 37.2793 2.94288C39.7646 4.12012 41.7267 5.75518 43.1655 7.84806C44.6044 9.94094 45.3238 12.2736 45.3238 14.8461C45.3238 17.7674 44.2556 20.3399 42.1191 22.5636C40.0262 24.7437 37.3447 26.0736 34.0746 26.5532C36.4727 26.8584 38.6092 27.5996 40.484 28.7769C42.4025 29.9105 43.885 31.3494 44.9314 33.0934C46.0214 34.8375 46.5665 36.7342 46.5665 38.7834C46.5665 41.5303 45.7598 44.0156 44.1466 46.2393C42.5769 48.463 40.3968 50.2289 37.6063 51.5369C34.8158 52.8014 31.6983 53.4336 28.2538 53.4336H-0.000100948V1.11161ZM28.2538 47.7436C30.6083 47.7436 32.6793 47.3512 34.467 46.5663C36.2547 45.7379 37.6281 44.6479 38.5874 43.2962C39.5466 41.9446 40.0262 40.4403 40.0262 38.7834C40.0262 37.083 39.5466 35.5351 38.5874 34.1399C37.6717 32.701 36.3637 31.5892 34.6632 30.8043C33.0064 29.9759 31.0879 29.5617 28.9078 29.5617H6.40934V47.7436H28.2538ZM27.6651 23.8063C31.0661 23.8063 33.7694 22.956 35.7751 21.2556C37.7807 19.5551 38.7836 17.4186 38.7836 14.8461C38.7836 12.5788 37.8243 10.6822 35.9059 9.15611C34.031 7.58645 31.5021 6.80162 28.3192 6.80162H6.40934V23.8063H27.6651ZM54.7362 1.11161H97.1824V6.73622H61.1456V24.4603H93.9122V30.0849H61.1456V47.809H97.1824V53.4336H54.7362V1.11161ZM127.01 1.11161H134.597L159.907 53.4336H152.713L144.734 36.3635H116.938L108.959 53.4336H101.765L127.01 1.11161ZM142.053 30.7389L130.803 6.73622L119.554 30.7389H142.053ZM187.911 54.5454C183.638 54.5454 179.758 53.5644 176.27 51.6023C172.825 49.6402 170.1 46.9587 168.094 43.5578C166.132 40.1133 165.151 36.2545 165.151 31.9816V1.11161H171.561V31.9816C171.561 35.1209 172.237 37.9768 173.588 40.5493C174.984 43.0782 176.924 45.0839 179.409 46.5663C181.894 48.0488 184.729 48.79 187.911 48.79C191.094 48.79 193.928 48.0488 196.414 46.5663C198.899 45.0839 200.818 43.0782 202.169 40.5493C203.564 37.9768 204.262 35.1209 204.262 31.9816V1.11161H210.672V31.9816C210.672 36.2545 209.669 40.1133 207.663 43.5578C205.701 46.9587 202.976 49.6402 199.488 51.6023C196.043 53.5644 192.184 54.5454 187.911 54.5454ZM236.174 6.73622H215.9V1.11161H262.924V6.73622H242.584V53.4336H236.174V6.73622ZM287.009 36.6906L264.249 1.11161H271.705L290.214 30.4119L308.657 1.11161H316.178L293.418 36.6906V53.4336H287.009V36.6906ZM337.124 1.11161H343.926L357.661 46.5663L371.722 1.11161H381.14L395.136 46.5663L408.936 1.11161H415.803L399.649 53.4336H390.493L376.431 7.19404L362.304 53.4336H353.213L337.124 1.11161ZM421.667 1.11161H428.077V53.4336H421.667V1.11161ZM438.529 1.11161H444.938V47.809H478.032V53.4336H438.529V1.11161ZM483.94 1.11161H490.349V47.809H523.443V53.4336H483.94V1.11161ZM570.738 54.5454C566.291 54.5454 562.258 53.8478 558.639 52.4526C555.02 51.0573 552.164 49.117 550.071 46.6317C548.022 44.1464 546.997 41.3777 546.997 38.3256H553.537C553.537 40.2877 554.279 42.0754 555.761 43.6886C557.244 45.2583 559.293 46.5009 561.909 47.4166C564.525 48.3322 567.468 48.79 570.738 48.79C574.052 48.79 576.951 48.3758 579.437 47.5474C581.966 46.6753 583.906 45.4981 585.258 44.0156C586.609 42.5332 587.285 40.8763 587.285 39.045C587.285 37.1702 586.522 35.6659 584.996 34.5323C583.514 33.355 581.66 32.4612 579.437 31.8508C577.213 31.1967 574.117 30.4555 570.15 29.6271C565.353 28.6679 561.495 27.7304 558.573 26.8148C555.652 25.8991 553.145 24.5257 551.052 22.6944C549.003 20.8196 547.978 18.3125 547.978 15.1731C547.978 12.2954 548.937 9.70113 550.856 7.39024C552.818 5.07936 555.499 3.26989 558.9 1.96184C562.345 0.653789 566.182 -0.00023535 570.411 -0.00023535C574.553 -0.00023535 578.303 0.675591 581.66 2.02724C585.061 3.33529 587.721 5.18836 589.64 7.58645C591.558 9.94094 592.517 12.5788 592.517 15.5002H585.977C585.977 13.6253 585.345 11.9684 584.08 10.5296C582.816 9.04711 581.006 7.89166 578.652 7.06323C576.297 6.1912 573.551 5.75518 570.411 5.75518C567.228 5.75518 564.438 6.1694 562.04 6.99783C559.642 7.78266 557.789 8.8945 556.48 10.3334C555.172 11.7722 554.518 13.3855 554.518 15.1731C554.518 16.8736 555.238 18.2689 556.677 19.3589C558.116 20.4053 559.903 21.2338 562.04 21.8442C564.176 22.4546 567.141 23.1304 570.934 23.8717C575.818 24.8309 579.764 25.7901 582.772 26.7494C585.824 27.665 588.419 29.1257 590.555 31.1313C592.735 33.0934 593.825 35.7313 593.825 39.045C593.825 41.9664 592.822 44.6261 590.817 47.0242C588.811 49.3786 586.042 51.2317 582.511 52.5834C578.979 53.8914 575.055 54.5454 570.738 54.5454ZM623.021 1.11161H630.608L655.919 53.4336H648.725L640.745 36.3635H612.949L604.97 53.4336H597.776L623.021 1.11161ZM638.064 30.7389L626.815 6.73622L615.566 30.7389H638.064ZM646.892 1.11161H654.151L675.669 47.6782L697.121 1.11161H704.381L679.397 53.4336H671.876L646.892 1.11161ZM710.294 1.11161H752.74V6.73622H716.703V24.4603H749.47V30.0849H716.703V47.809H752.74V53.4336H710.294V1.11161ZM795.225 6.73622H774.95V1.11161H821.975V6.73622H801.635V53.4336H795.225V6.73622ZM827.878 1.11161H834.287V24.4603H865.68V1.11161H872.09V53.4336H865.68V30.0849H834.287V53.4336H827.878V1.11161ZM882.55 1.11161H924.996V6.73622H888.96V24.4603H921.726V30.0849H888.96V47.809H924.996V53.4336H882.55V1.11161ZM949.187 1.11161H955.988L969.723 46.5663L983.785 1.11161H993.202L1007.2 46.5663L1021 1.11161H1027.87L1011.71 53.4336H1002.56L988.494 7.19404L974.367 53.4336H965.276L949.187 1.11161ZM1056.18 54.5454C1051.3 54.5454 1046.88 53.3682 1042.91 51.0137C1038.98 48.6156 1035.89 45.3455 1033.62 41.2033C1031.35 37.0176 1030.22 32.374 1030.22 27.2726C1030.22 22.1712 1031.35 17.5494 1033.62 13.4073C1035.89 9.22152 1038.98 5.95139 1042.91 3.5969C1046.88 1.19881 1051.3 -0.00023535 1056.18 -0.00023535C1061.07 -0.00023535 1065.49 1.19881 1069.46 3.5969C1073.43 5.95139 1076.55 9.22152 1078.81 13.4073C1081.08 17.5494 1082.21 22.1712 1082.21 27.2726C1082.21 32.374 1081.08 37.0176 1078.81 41.2033C1076.55 45.3455 1073.43 48.6156 1069.46 51.0137C1065.49 53.3682 1061.07 54.5454 1056.18 54.5454ZM1036.76 27.2726C1036.76 31.3276 1037.57 34.9901 1039.18 38.2602C1040.79 41.5303 1043.06 44.1028 1045.98 45.9777C1048.95 47.8526 1052.35 48.79 1056.18 48.79C1060.02 48.79 1063.42 47.8526 1066.39 45.9777C1069.35 44.1028 1071.64 41.5303 1073.25 38.2602C1074.87 34.9901 1075.67 31.3276 1075.67 27.2726C1075.67 23.2176 1074.87 19.5551 1073.25 16.285C1071.64 13.0149 1069.35 10.4424 1066.39 8.56749C1063.42 6.69262 1060.02 5.75518 1056.18 5.75518C1052.35 5.75518 1048.95 6.69262 1045.98 8.56749C1043.06 10.4424 1040.79 13.0149 1039.18 16.285C1037.57 19.5551 1036.76 23.2176 1036.76 27.2726ZM1090.06 1.11161H1118.45C1121.76 1.11161 1124.75 1.78743 1127.41 3.13908C1130.11 4.44713 1132.23 6.2784 1133.75 8.63289C1135.32 10.9438 1136.11 13.5381 1136.11 16.4158C1136.11 20.2527 1134.93 23.5883 1132.57 26.4224C1130.22 29.2129 1127.15 31.0223 1123.35 31.8508L1138.46 53.4336H1131.14L1116.35 32.2432H1096.47V53.4336H1090.06V1.11161ZM1119.1 26.5532C1121.06 26.5532 1122.83 26.1172 1124.4 25.2451C1126.01 24.3731 1127.28 23.174 1128.19 21.648C1129.11 20.0783 1129.57 18.3343 1129.57 16.4158C1129.57 14.6281 1129.09 12.9931 1128.13 11.5106C1127.17 10.0281 1125.84 8.8727 1124.14 8.04427C1122.44 7.21584 1120.54 6.80162 1118.45 6.80162H1096.47V26.5532H1119.1ZM1146.33 1.11161H1152.74V47.809H1185.83V53.4336H1146.33V1.11161ZM1191.74 1.11161H1198.15L1214.63 1.0462C1219.3 1.0462 1223.53 2.20165 1227.32 4.51254C1231.16 6.77982 1234.17 9.91914 1236.35 13.9305C1238.53 17.8982 1239.62 22.3456 1239.62 27.2726C1239.62 32.1996 1238.51 36.6688 1236.28 40.6801C1234.06 44.6479 1230.98 47.7654 1227.06 50.0327C1223.14 52.3 1218.78 53.4336 1213.98 53.4336H1198.15H1191.74V1.11161ZM1213.98 47.8744C1217.95 47.8744 1221.37 46.9805 1224.25 45.1929C1227.13 43.4052 1229.31 40.9635 1230.79 37.8678C1232.31 34.7285 1233.08 31.1967 1233.08 27.2726C1233.08 23.3485 1232.27 19.8167 1230.66 16.6774C1229.04 13.5381 1226.69 11.0746 1223.59 9.28692C1220.54 7.49925 1216.9 6.60542 1212.67 6.60542C1204.39 6.60542 1199.55 6.67082 1198.15 6.80162V47.7436L1213.98 47.8744Z" fill="white"/>
</svg>
