<svg width="190" height="32" viewBox="0 0 190 32" fill="none" xmlns="http://www.w3.org/2000/svg">
<path d="M0 6.54154C0 6.09524 0.0377696 5.70632 0.113309 5.37478C0.188848 5.04324 0.333632 4.76908 0.547659 4.5523C0.761687 4.32277 1.05755 4.15063 1.43525 4.03586C1.81294 3.9211 2.30395 3.86372 2.90826 3.86372H11.3309C12.0611 3.86372 12.615 3.97211 12.9927 4.18888C13.383 4.40566 13.6537 4.67982 13.8048 5.01136C13.9685 5.33015 14.0566 5.67444 14.0692 6.04423C14.0818 6.40127 14.0881 6.73282 14.0881 7.03885V28.2319C14.0881 28.5252 14.0629 28.8504 14.0125 29.2074C13.9622 29.5645 13.8363 29.9024 13.6348 30.2212C13.4334 30.5272 13.1249 30.7886 12.7095 31.0054C12.294 31.2222 11.7212 31.3305 10.991 31.3305H2.90826C2.30395 31.3305 1.81294 31.2732 1.43525 31.1584C1.05755 31.0436 0.761687 30.8779 0.547659 30.6611C0.333632 30.4443 0.188848 30.1702 0.113309 29.8386C0.0377696 29.5071 0 29.1181 0 28.6718V6.54154ZM12.4829 6.69456C12.4829 6.41403 12.464 6.19087 12.4262 6.0251C12.3884 5.85933 12.3129 5.73819 12.1996 5.66169C12.0863 5.57242 11.9352 5.52142 11.7463 5.50867C11.5575 5.48316 11.312 5.47041 11.0098 5.47041V29.7238C11.312 29.7238 11.5575 29.7175 11.7463 29.7047C11.9352 29.6792 12.0863 29.6282 12.1996 29.5517C12.3129 29.4624 12.3884 29.3413 12.4262 29.1883C12.464 29.0225 12.4829 28.793 12.4829 28.4997V6.69456Z" fill="white"/>
<path d="M16.2598 18.0179C15.9954 18.0179 15.8632 17.8777 15.8632 17.5971V16.0669C15.8632 15.7992 15.9954 15.6653 16.2598 15.6653H18.2238V11.3234C18.2238 11.1321 18.249 10.9408 18.2994 10.7496C18.3623 10.5583 18.5197 10.4116 18.7715 10.3096L29.1959 6.40765C29.6743 6.22913 30.0709 6.09524 30.3856 6.00598C30.7004 5.91672 30.9774 5.87209 31.2166 5.87209C31.3047 5.87209 31.3991 5.89121 31.4999 5.92947C31.6132 5.95497 31.7139 6.00598 31.802 6.08249C31.9027 6.159 31.9846 6.26738 32.0475 6.40765C32.1105 6.53517 32.1419 6.69456 32.1419 6.88583V15.6653H35.5412C35.8056 15.6653 35.9378 15.7992 35.9378 16.0669V17.5971C35.9378 17.8777 35.8056 18.0179 35.5412 18.0179H32.1419V25.7262C32.1419 26.6316 32.2867 27.2692 32.5763 27.639C32.8784 28.0088 33.338 28.1937 33.9549 28.1937C34.0934 28.1937 34.2382 28.1809 34.3892 28.1554C34.5403 28.1172 34.6788 28.0853 34.8047 28.0598C34.9432 28.0215 35.0691 27.9896 35.1824 27.9641C35.2957 27.9259 35.3901 27.9068 35.4657 27.9068C35.6041 27.9068 35.6734 27.9896 35.6734 28.1554V29.6282C35.6734 29.8832 35.623 30.0554 35.5223 30.1446C35.4216 30.2339 35.3335 30.2913 35.2579 30.3168C34.7795 30.5208 34.213 30.7248 33.5583 30.9289C32.9162 31.1329 32.2175 31.3114 31.4621 31.4644C30.7193 31.6302 29.9324 31.7577 29.1015 31.847C28.2706 31.949 27.4396 32 26.6087 32C25.4127 32 24.2984 31.9362 23.2661 31.8087C22.2463 31.694 21.3587 31.4198 20.6033 30.9862C19.8605 30.5527 19.2751 29.9087 18.847 29.0544C18.4316 28.2 18.2238 27.0396 18.2238 25.5732V18.0179H16.2598ZM30.5367 8.60729C30.5367 8.35226 30.5053 8.14824 30.4423 7.99522C30.3919 7.82945 30.2597 7.74656 30.0457 7.74656C29.9702 7.74656 29.8695 7.75931 29.7436 7.78482C29.6303 7.81032 29.5044 7.85495 29.3659 7.91871L29.0637 8.0526V26.2235C29.0637 26.7974 29.1581 27.2628 29.347 27.6198C29.5358 27.9769 29.7687 28.2574 30.0457 28.4614C30.3227 28.6655 30.6186 28.8057 30.9333 28.8822C31.2481 28.946 31.5313 28.9779 31.7831 28.9779C31.5943 28.8249 31.418 28.6718 31.2543 28.5188C31.1033 28.3531 30.9711 28.1682 30.8578 27.9641C30.7571 27.7474 30.6752 27.5115 30.6123 27.2564C30.5619 26.9886 30.5367 26.6699 30.5367 26.3001V8.60729Z" fill="white"/>
<path d="M52.292 11.0747C53.0978 11.0747 53.9035 11.1257 54.7093 11.2277C55.515 11.317 56.2767 11.4381 56.9943 11.5912C57.7245 11.7442 58.3855 11.9163 58.9772 12.1076C59.5816 12.2861 60.0726 12.4646 60.4503 12.6432C60.5132 12.6687 60.5762 12.7069 60.6391 12.7579C60.7146 12.8089 60.7524 12.9046 60.7524 13.0448C60.7524 13.0831 60.7461 13.1341 60.7335 13.1978C60.7209 13.2616 60.7083 13.3254 60.6958 13.3891L60.4691 14.5176C60.444 14.6707 60.4062 14.7663 60.3558 14.8045C60.3181 14.83 60.2803 14.8428 60.2425 14.8428C60.1796 14.8428 60.06 14.8237 59.8837 14.7854C59.7075 14.7472 59.5186 14.728 59.3172 14.728C58.5995 14.728 58.033 14.9257 57.6175 15.321C57.2021 15.7035 56.9377 16.3794 56.8244 17.3485L55.7668 26.2809C55.6661 27.0715 55.4017 27.8111 54.9737 28.4997C54.5582 29.1883 53.9539 29.794 53.1607 30.3168C52.3676 30.8396 51.3855 31.2477 50.2147 31.5409C49.0564 31.847 47.6967 32 46.1356 32C45.1536 32 44.1967 31.9362 43.2651 31.8087C42.3334 31.694 41.471 31.5473 40.6779 31.3688C39.8973 31.203 39.2111 31.0373 38.6194 30.8715C38.0403 30.693 37.6059 30.5527 37.3164 30.4507C37.2156 30.4252 37.1401 30.3933 37.0898 30.355C37.0268 30.304 36.9953 30.2275 36.9953 30.1255C36.9953 30.0745 37.0016 30.0171 37.0142 29.9534C37.0268 29.8896 37.0457 29.8131 37.0709 29.7238L37.2975 28.6527C37.3227 28.5507 37.3667 28.4678 37.4297 28.4041C37.4926 28.3403 37.6059 28.3084 37.7696 28.3084C38.1851 28.3084 38.6005 28.2893 39.016 28.251C39.4441 28.2 39.8343 28.0789 40.1869 27.8876C40.552 27.6964 40.8667 27.4031 41.1311 27.0078C41.4081 26.6125 41.5969 26.0578 41.6976 25.3437L43.0196 16.1243C43.1581 15.1552 43.5106 14.3455 44.0771 13.6952C44.6437 13.0448 45.3424 12.5284 46.1733 12.1458C47.0169 11.7505 47.9674 11.4764 49.0249 11.3234C50.0825 11.1576 51.1715 11.0747 52.292 11.0747ZM48.7039 30.2212C50.4413 30.0171 51.7569 29.5262 52.6508 28.7484C53.5573 27.9578 54.0798 26.9759 54.2183 25.8027L55.2192 17.3485C55.3325 16.3794 55.6094 15.576 56.0501 14.9384C56.5033 14.3009 57.1202 13.9119 57.9008 13.7717C57.1958 13.7717 56.5915 13.8673 56.0879 14.0586C55.5969 14.2498 55.1814 14.5113 54.8415 14.8428C54.5015 15.1616 54.2372 15.5378 54.0483 15.9713C53.872 16.4049 53.7587 16.8639 53.7084 17.3485L52.7075 25.8027C52.6445 26.3001 52.5123 26.7782 52.3109 27.2373C52.1221 27.6964 51.864 28.1235 51.5366 28.5188C51.2093 28.9014 50.8064 29.2457 50.328 29.5517C49.8622 29.845 49.3208 30.0681 48.7039 30.2212Z" fill="white"/>
<path d="M85.0572 3.86372C85.2838 3.86372 85.4789 3.8956 85.6426 3.95935C85.8062 4.01036 85.951 4.106 86.0769 4.24626C86.2154 4.38653 86.3413 4.57143 86.4546 4.80096C86.5679 5.03048 86.6875 5.31102 86.8134 5.64256L95.4816 29.0926C95.5445 29.2712 95.5886 29.4306 95.6138 29.5708C95.6389 29.7111 95.6515 29.8514 95.6515 29.9916C95.6515 30.4507 95.513 30.7886 95.2361 31.0054C94.9717 31.2222 94.6884 31.3305 94.3862 31.3305H83.6786C83.3512 31.3305 83.0742 31.2923 82.8476 31.2158C82.6336 31.1265 82.451 31.0245 82.3 30.9097C82.1489 30.795 82.0293 30.6738 81.9412 30.5463C81.8656 30.4188 81.8153 30.304 81.7901 30.202L81.5823 29.5326H76.2757L76.1435 30.1064C76.1058 30.2977 76.0617 30.4698 76.0113 30.6228C75.961 30.7631 75.898 30.8906 75.8225 31.0054C75.7469 31.1074 75.6399 31.1903 75.5014 31.254C75.3755 31.305 75.2056 31.3305 74.9916 31.3305H73.0464C72.6435 31.3305 72.4421 31.1711 72.4421 30.8524C72.4421 30.7376 72.461 30.6037 72.4988 30.4507C72.5491 30.2849 72.6121 30.0936 72.6876 29.8769L80.5815 5.68081C80.7703 5.08149 80.9843 4.63519 81.2235 4.3419C81.4627 4.04861 81.8027 3.88922 82.2433 3.86372H85.0572ZM76.8611 27.1799H80.9403L78.8441 19.7011L76.8611 27.1799ZM85.2649 6.08249C85.1642 5.8147 85.0383 5.64893 84.8872 5.58518C84.7487 5.50867 84.5032 5.47041 84.1507 5.47041H83.4897L92.4222 29.7238H93.3287C93.5553 29.7238 93.7064 29.6792 93.7819 29.59C93.8701 29.4879 93.8638 29.3094 93.763 29.0544L85.2649 6.08249Z" fill="white"/>
<path d="M97.5967 14.4029C97.5967 13.9693 97.6344 13.5868 97.71 13.2552C97.7855 12.9109 97.9303 12.6304 98.1443 12.4136C98.3584 12.1969 98.6542 12.0311 99.0319 11.9163C99.4096 11.8016 99.9006 11.7442 100.505 11.7442H108.229C108.795 11.7442 109.28 11.8016 109.683 11.9163C110.098 12.0311 110.394 12.2287 110.571 12.5093C110.734 12.3945 110.929 12.2734 111.156 12.1458C111.395 12.0056 111.653 11.8781 111.93 11.7633C112.207 11.6485 112.503 11.5529 112.818 11.4764C113.133 11.3999 113.46 11.3616 113.8 11.3616C115.008 11.3616 115.946 11.7824 116.614 12.624C117.294 13.4656 117.633 14.7025 117.633 16.3347V30.4316C117.633 30.6483 117.602 30.8205 117.539 30.948C117.489 31.0628 117.419 31.152 117.331 31.2158C117.256 31.2668 117.161 31.2987 117.048 31.3114C116.935 31.3242 116.821 31.3305 116.708 31.3305H115.499C115.172 31.3305 114.958 31.2349 114.857 31.0436C114.769 30.8524 114.725 30.6483 114.725 30.4316V16.1435C114.725 15.4166 114.593 14.8619 114.329 14.4794C114.077 14.0968 113.668 13.9056 113.101 13.9056C112.812 13.9056 112.516 13.9884 112.214 14.1542C111.924 14.3072 111.691 14.473 111.515 14.6515V28.6527C111.515 29.099 111.477 29.4879 111.401 29.8195C111.326 30.151 111.181 30.4316 110.967 30.6611C110.753 30.8779 110.457 31.0436 110.08 31.1584C109.702 31.2732 109.211 31.3305 108.607 31.3305H100.505C99.9006 31.3305 99.4096 31.2732 99.0319 31.1584C98.6542 31.0436 98.3584 30.8779 98.1443 30.6611C97.9303 30.4443 97.7855 30.1702 97.71 29.8386C97.6344 29.5071 97.5967 29.1181 97.5967 28.6718V14.4029ZM109.91 14.575C109.91 14.1287 109.79 13.8163 109.551 13.6378C109.324 13.4465 108.953 13.3509 108.437 13.3509V29.7238C108.739 29.7238 108.984 29.7175 109.173 29.7047C109.362 29.6792 109.513 29.6282 109.626 29.5517C109.74 29.4624 109.815 29.3413 109.853 29.1883C109.891 29.0225 109.91 28.793 109.91 28.4997V14.575Z" fill="white"/>
<path d="M121.127 14.4029C121.127 13.9693 121.165 13.5868 121.24 13.2552C121.316 12.9109 121.461 12.6304 121.675 12.4136C121.889 12.1969 122.185 12.0311 122.562 11.9163C122.94 11.8016 123.431 11.7442 124.035 11.7442H131.759C132.326 11.7442 132.804 11.8016 133.195 11.9163C133.585 12.0311 133.868 12.2287 134.044 12.5093C134.208 12.3817 134.409 12.2542 134.649 12.1267C134.888 11.9865 135.146 11.8589 135.423 11.7442C135.712 11.6294 136.015 11.5401 136.329 11.4764C136.657 11.3999 136.99 11.3616 137.33 11.3616C138.489 11.3616 139.395 11.7505 140.05 12.5284C140.213 12.3881 140.421 12.2479 140.673 12.1076C140.925 11.9673 141.202 11.8462 141.504 11.7442C141.806 11.6294 142.121 11.5401 142.448 11.4764C142.788 11.3999 143.122 11.3616 143.449 11.3616C144.658 11.3616 145.596 11.7824 146.263 12.624C146.943 13.4656 147.283 14.7025 147.283 16.3347V30.4316C147.283 30.6483 147.251 30.8205 147.188 30.948C147.138 31.0628 147.069 31.152 146.98 31.2158C146.892 31.2668 146.792 31.2987 146.678 31.3114C146.565 31.3242 146.452 31.3305 146.338 31.3305H145.149C144.821 31.3305 144.607 31.2349 144.507 31.0436C144.418 30.8524 144.374 30.6483 144.374 30.4316V16.1435C144.374 15.4166 144.242 14.8619 143.978 14.4794C143.726 14.0968 143.317 13.9056 142.75 13.9056C142.599 13.9056 142.442 13.9374 142.278 14.0012C142.114 14.0522 141.951 14.1223 141.787 14.2116C141.636 14.2881 141.491 14.3774 141.353 14.4794C141.227 14.5686 141.12 14.6579 141.032 14.7472C141.069 14.9894 141.101 15.2445 141.126 15.5123C141.151 15.7673 141.164 16.0414 141.164 16.3347V30.4316C141.164 30.6483 141.132 30.8205 141.069 30.948C141.019 31.0628 140.95 31.152 140.862 31.2158C140.786 31.2668 140.692 31.2987 140.578 31.3114C140.465 31.3242 140.352 31.3305 140.239 31.3305H139.03C138.703 31.3305 138.489 31.2349 138.388 31.0436C138.3 30.8524 138.256 30.6483 138.256 30.4316V16.1435C138.256 15.4166 138.123 14.8619 137.859 14.4794C137.607 14.0968 137.198 13.9056 136.632 13.9056C136.342 13.9056 136.046 13.9884 135.744 14.1542C135.454 14.3072 135.221 14.473 135.045 14.6515V28.6527C135.045 29.099 135.007 29.4879 134.932 29.8195C134.856 30.151 134.712 30.4316 134.498 30.6611C134.284 30.8779 133.988 31.0436 133.61 31.1584C133.232 31.2732 132.741 31.3305 132.137 31.3305H124.035C123.431 31.3305 122.94 31.2732 122.562 31.1584C122.185 31.0436 121.889 30.8779 121.675 30.6611C121.461 30.4443 121.316 30.1702 121.24 29.8386C121.165 29.5071 121.127 29.1181 121.127 28.6718V14.4029ZM133.44 14.575C133.44 14.1287 133.32 13.8163 133.081 13.6378C132.855 13.4465 132.483 13.3509 131.967 13.3509V29.7238C132.269 29.7238 132.515 29.7175 132.704 29.7047C132.892 29.6792 133.043 29.6282 133.157 29.5517C133.27 29.4624 133.346 29.3413 133.383 29.1883C133.421 29.0225 133.44 28.793 133.44 28.4997V14.575Z" fill="white"/>
<path d="M161.692 32C160.747 32 159.803 31.9235 158.859 31.7705C157.915 31.6175 157.008 31.3752 156.14 31.0436C155.283 30.7121 154.484 30.2785 153.741 29.743C152.998 29.2074 152.35 28.5507 151.796 27.7729C151.255 26.995 150.827 26.096 150.512 25.0759C150.197 24.043 150.04 22.8635 150.04 21.5374C150.04 20.2367 150.197 19.0763 150.512 18.0562C150.827 17.0233 151.255 16.118 151.796 15.3401C152.35 14.5623 152.998 13.9056 153.741 13.37C154.484 12.8217 155.283 12.3817 156.14 12.0502C157.008 11.7059 157.915 11.4573 158.859 11.3042C159.803 11.1512 160.747 11.0747 161.692 11.0747C162.56 11.0747 163.448 11.1321 164.354 11.2469C165.274 11.3489 166.161 11.5465 167.017 11.8398C167.886 12.1203 168.698 12.5093 169.453 13.0066C170.221 13.4911 170.889 14.116 171.455 14.8811C172.034 15.6461 172.488 16.5643 172.815 17.6354C173.155 18.6938 173.325 19.9434 173.325 21.3843C173.325 22.8635 173.161 24.1578 172.834 25.2672C172.506 26.3638 172.053 27.3074 171.474 28.098C170.907 28.8759 170.247 29.5198 169.491 30.0299C168.736 30.5399 167.924 30.9416 167.055 31.2349C166.199 31.5154 165.311 31.7131 164.392 31.8279C163.473 31.9426 162.573 32 161.692 32ZM167.489 27.4094C167.88 27.4094 168.264 27.3266 168.641 27.1608C169.032 26.9823 169.372 26.6699 169.661 26.2235C169.963 25.7772 170.202 25.1652 170.379 24.3873C170.568 23.5967 170.662 22.5957 170.662 21.3843C170.662 20.2367 170.568 19.2931 170.379 18.5535C170.202 17.8139 169.963 17.2337 169.661 16.8129C169.359 16.3794 169.019 16.0797 168.641 15.9139C168.264 15.7482 167.88 15.6653 167.489 15.6653C167.187 15.6653 166.847 15.729 166.47 15.8565C166.104 15.9841 165.758 16.2582 165.431 16.679C165.116 17.0871 164.852 17.68 164.638 18.4579C164.424 19.223 164.317 20.2495 164.317 21.5374C164.317 22.8253 164.405 23.8581 164.581 24.636C164.757 25.4138 164.99 26.0068 165.28 26.4148C165.569 26.8229 165.903 27.0907 166.281 27.2182C166.671 27.3457 167.074 27.4094 167.489 27.4094ZM166.073 28.1745C165.658 28.098 165.248 27.9514 164.845 27.7346C164.443 27.5178 164.084 27.1672 163.769 26.6826C163.454 26.1853 163.196 25.5286 162.995 24.7125C162.806 23.8836 162.711 22.8253 162.711 21.5374C162.711 20.683 162.762 19.9307 162.863 19.2803C162.976 18.63 163.121 18.0689 163.297 17.5971C163.486 17.1253 163.7 16.73 163.939 16.4112C164.178 16.0924 164.417 15.831 164.657 15.627C164.908 15.4102 165.154 15.2508 165.393 15.1488C165.645 15.0341 165.872 14.9512 166.073 14.9002C165.632 14.9002 165.129 15.0022 164.562 15.2062C163.996 15.3975 163.461 15.7418 162.957 16.2391C162.453 16.7364 162.025 17.4186 161.673 18.2857C161.333 19.1401 161.163 20.2239 161.163 21.5374C161.163 22.8635 161.314 23.9538 161.616 24.8081C161.918 25.6625 162.302 26.3383 162.768 26.8356C163.247 27.3329 163.775 27.6836 164.354 27.8876C164.946 28.0789 165.519 28.1745 166.073 28.1745Z" fill="white"/>
<path d="M176.082 2.6587C176.082 2.22514 176.12 1.8426 176.195 1.51106C176.271 1.16677 176.416 0.886232 176.63 0.669456C176.844 0.45268 177.139 0.28691 177.517 0.172146C177.895 0.057382 178.386 0 178.99 0H187.262C187.841 0 188.307 0.057382 188.659 0.172146C189.012 0.274158 189.289 0.433552 189.49 0.650329C189.692 0.867105 189.824 1.14126 189.887 1.4728C189.962 1.80434 190 2.19327 190 2.63957V28.7101C190 29.1437 189.962 29.5262 189.887 29.8577C189.811 30.1765 189.673 30.4507 189.471 30.6802C189.27 30.897 188.987 31.0628 188.621 31.1775C188.269 31.2795 187.803 31.3305 187.224 31.3305H178.99C178.386 31.3305 177.895 31.2732 177.517 31.1584C177.139 31.0436 176.844 30.8779 176.63 30.6611C176.416 30.4443 176.271 30.1702 176.195 29.8386C176.12 29.5071 176.082 29.1181 176.082 28.6718V2.6587ZM188.395 2.83084C188.395 2.55031 188.376 2.32716 188.338 2.16139C188.3 1.99562 188.225 1.87448 188.112 1.79797C187.998 1.70871 187.847 1.6577 187.658 1.64495C187.469 1.61945 187.224 1.60669 186.922 1.60669V29.7238C187.224 29.7238 187.469 29.7175 187.658 29.7047C187.847 29.6792 187.998 29.6282 188.112 29.5517C188.225 29.4624 188.3 29.3413 188.338 29.1883C188.376 29.0225 188.395 28.793 188.395 28.4997V2.83084Z" fill="white"/>
</svg>
