<svg width="121" height="20" viewBox="0 0 121 20" fill="none" xmlns="http://www.w3.org/2000/svg">
<path d="M0 4.08846C0 3.80952 0.0240533 3.56645 0.0721598 3.35924C0.120266 3.15202 0.212471 2.98067 0.348772 2.84519C0.485074 2.70173 0.673492 2.59414 0.914024 2.52241C1.15456 2.45069 1.46725 2.41482 1.8521 2.41482H7.21598C7.68101 2.41482 8.03379 2.48257 8.27433 2.61805C8.52288 2.75354 8.69526 2.92489 8.79147 3.1321C8.8957 3.33134 8.95183 3.54652 8.95984 3.77765C8.96786 4.0008 8.97187 4.20801 8.97187 4.39928V17.6449C8.97187 17.8283 8.95584 18.0315 8.92377 18.2546C8.89169 18.4778 8.81152 18.689 8.68323 18.8882C8.55495 19.0795 8.35851 19.2429 8.09393 19.3784C7.82934 19.5138 7.46453 19.5816 6.9995 19.5816H1.8521C1.46725 19.5816 1.15456 19.5457 0.914024 19.474C0.673492 19.4023 0.485074 19.2987 0.348772 19.1632C0.212471 19.0277 0.120266 18.8563 0.0721598 18.6491C0.0240533 18.4419 0 18.1988 0 17.9199V4.08846ZM7.94961 4.1841C7.94961 4.00877 7.93758 3.8693 7.91353 3.76569C7.88947 3.66208 7.84137 3.58637 7.76921 3.53855C7.69705 3.48277 7.60083 3.45089 7.48057 3.44292C7.3603 3.42698 7.20396 3.41901 7.01153 3.41901V18.5774C7.20396 18.5774 7.3603 18.5734 7.48057 18.5655C7.60083 18.5495 7.69705 18.5176 7.76921 18.4698C7.84137 18.414 7.88947 18.3383 7.91353 18.2427C7.93758 18.1391 7.94961 17.9956 7.94961 17.8123V4.1841Z" fill="black"/>
<path d="M10.3549 11.2612C10.1866 11.2612 10.1024 11.1735 10.1024 10.9982V10.0418C10.1024 9.87448 10.1866 9.7908 10.3549 9.7908H11.6057V7.07711C11.6057 6.95756 11.6217 6.83802 11.6538 6.71847C11.6939 6.59892 11.7941 6.50727 11.9545 6.44351L18.5932 4.00478C18.8979 3.89321 19.1504 3.80952 19.3509 3.75374C19.5513 3.69795 19.7277 3.67005 19.88 3.67005C19.9362 3.67005 19.9963 3.68201 20.0604 3.70592C20.1326 3.72186 20.1967 3.75374 20.2529 3.80155C20.317 3.84937 20.3691 3.91712 20.4092 4.00478C20.4493 4.08448 20.4693 4.1841 20.4693 4.30365V9.7908H22.6341C22.8025 9.7908 22.8867 9.87448 22.8867 10.0418V10.9982C22.8867 11.1735 22.8025 11.2612 22.6341 11.2612H20.4693V16.0789C20.4693 16.6448 20.5615 17.0432 20.7459 17.2744C20.9384 17.5055 21.231 17.621 21.6239 17.621C21.7121 17.621 21.8043 17.6131 21.9005 17.5971C21.9967 17.5732 22.0849 17.5533 22.1651 17.5374C22.2533 17.5134 22.3335 17.4935 22.4056 17.4776C22.4778 17.4537 22.5379 17.4417 22.586 17.4417C22.6742 17.4417 22.7183 17.4935 22.7183 17.5971V18.5176C22.7183 18.677 22.6862 18.7846 22.6221 18.8404C22.558 18.8962 22.5018 18.9321 22.4537 18.948C22.1491 19.0755 21.7883 19.203 21.3713 19.3305C20.9624 19.4581 20.5174 19.5696 20.0364 19.6653C19.5633 19.7689 19.0622 19.8486 18.533 19.9044C18.0039 19.9681 17.4747 20 16.9455 20C16.1838 20 15.4743 19.9602 14.8168 19.8805C14.1674 19.8087 13.6021 19.6374 13.1211 19.3664C12.648 19.0954 12.2752 18.693 12.0026 18.159C11.738 17.625 11.6057 16.8998 11.6057 15.9833V11.2612H10.3549ZM19.4471 5.37956C19.4471 5.22016 19.427 5.09265 19.3869 4.99701C19.3549 4.89341 19.2707 4.8416 19.1344 4.8416C19.0863 4.8416 19.0221 4.84957 18.942 4.86551C18.8698 4.88145 18.7896 4.90934 18.7014 4.94919L18.509 5.03288V16.3897C18.509 16.7484 18.5691 17.0393 18.6894 17.2624C18.8097 17.4856 18.958 17.6609 19.1344 17.7884C19.3108 17.9159 19.4992 18.0036 19.6996 18.0514C19.9001 18.0913 20.0805 18.1112 20.2408 18.1112C20.1206 18.0155 20.0083 17.9199 19.9041 17.8243C19.8079 17.7207 19.7237 17.6051 19.6515 17.4776C19.5874 17.3421 19.5353 17.1947 19.4952 17.0353C19.4631 16.8679 19.4471 16.6687 19.4471 16.4375V5.37956Z" fill="black"/>
<path d="M33.3018 6.9217C33.8149 6.9217 34.328 6.95358 34.8412 7.01733C35.3543 7.07312 35.8394 7.14883 36.2964 7.24447C36.7614 7.34011 37.1824 7.4477 37.5592 7.56724C37.944 7.67882 38.2567 7.7904 38.4973 7.90197C38.5374 7.91791 38.5774 7.94182 38.6175 7.9737C38.6656 8.00558 38.6897 8.06535 38.6897 8.15302C38.6897 8.17693 38.6857 8.20881 38.6777 8.24866C38.6696 8.2885 38.6616 8.32835 38.6536 8.3682L38.5093 9.07352C38.4933 9.16916 38.4692 9.22893 38.4371 9.25284C38.4131 9.26878 38.389 9.27675 38.365 9.27675C38.3249 9.27675 38.2487 9.26479 38.1365 9.24088C38.0242 9.21698 37.904 9.20502 37.7757 9.20502C37.3187 9.20502 36.9579 9.32855 36.6933 9.57561C36.4287 9.8147 36.2603 10.2371 36.1882 10.8428L35.5147 16.4256C35.4505 16.9197 35.2821 17.3819 35.0095 17.8123C34.745 18.2427 34.3601 18.6212 33.855 18.948C33.3499 19.2748 32.7245 19.5298 31.9788 19.7131C31.2412 19.9044 30.3753 20 29.3811 20C28.7557 20 28.1463 19.9602 27.553 19.8805C26.9597 19.8087 26.4105 19.7171 25.9054 19.6055C25.4083 19.5019 24.9713 19.3983 24.5945 19.2947C24.2257 19.1831 23.949 19.0954 23.7646 19.0317C23.7005 19.0157 23.6524 18.9958 23.6203 18.9719C23.5802 18.94 23.5602 18.8922 23.5602 18.8285C23.5602 18.7966 23.5642 18.7607 23.5722 18.7209C23.5802 18.681 23.5923 18.6332 23.6083 18.5774L23.7526 17.908C23.7686 17.8442 23.7967 17.7924 23.8368 17.7525C23.8769 17.7127 23.949 17.6928 24.0533 17.6928C24.3179 17.6928 24.5824 17.6808 24.847 17.6569C25.1196 17.625 25.3682 17.5493 25.5927 17.4298C25.8252 17.3102 26.0256 17.1269 26.194 16.8799C26.3704 16.6328 26.4907 16.2861 26.5548 15.8398L27.3967 10.0777C27.4849 9.47201 27.7094 8.96593 28.0702 8.55947C28.431 8.15302 28.876 7.83025 29.4051 7.59115C29.9423 7.34409 30.5477 7.17274 31.2212 7.07711C31.8946 6.9735 32.5882 6.9217 33.3018 6.9217ZM31.0167 18.8882C32.1231 18.7607 32.961 18.4539 33.5303 17.9677C34.1075 17.4736 34.4403 16.8599 34.5285 16.1267L35.1659 10.8428C35.238 10.2371 35.4144 9.73501 35.6951 9.33652C35.9837 8.93804 36.3766 8.69496 36.8737 8.60729C36.4247 8.60729 36.0398 8.66707 35.7191 8.78661C35.4064 8.90616 35.1418 9.06954 34.9254 9.27675C34.7089 9.47599 34.5405 9.7111 34.4202 9.98207C34.308 10.253 34.2358 10.5399 34.2038 10.8428L33.5663 16.1267C33.5263 16.4375 33.4421 16.7364 33.3138 17.0233C33.1935 17.3102 33.0292 17.5772 32.8207 17.8243C32.6122 18.0634 32.3557 18.2785 32.051 18.4698C31.7543 18.6531 31.4096 18.7926 31.0167 18.8882Z" fill="black"/>
<path d="M54.168 2.41482C54.3123 2.41482 54.4366 2.43475 54.5408 2.4746C54.645 2.50648 54.7372 2.56625 54.8174 2.65392C54.9056 2.74158 54.9858 2.85714 55.0579 3.0006C55.1301 3.14405 55.2063 3.31939 55.2865 3.5266L60.8067 18.1829C60.8468 18.2945 60.8748 18.3941 60.8909 18.4818C60.9069 18.5694 60.9149 18.6571 60.9149 18.7448C60.9149 19.0317 60.8267 19.2429 60.6503 19.3784C60.482 19.5138 60.3016 19.5816 60.1091 19.5816H53.29C53.0816 19.5816 52.9052 19.5577 52.7609 19.5099C52.6246 19.4541 52.5083 19.3903 52.4121 19.3186C52.3159 19.2469 52.2397 19.1712 52.1836 19.0915C52.1355 19.0118 52.1034 18.94 52.0874 18.8763L51.9551 18.4579H48.5756L48.4914 18.8165C48.4673 18.936 48.4393 19.0436 48.4072 19.1393C48.3751 19.2269 48.3351 19.3066 48.2869 19.3784C48.2388 19.4421 48.1707 19.4939 48.0825 19.5338C48.0023 19.5657 47.8941 19.5816 47.7578 19.5816H46.519C46.2625 19.5816 46.1342 19.482 46.1342 19.2827C46.1342 19.211 46.1462 19.1273 46.1703 19.0317C46.2023 18.9281 46.2424 18.8085 46.2905 18.673L51.3177 3.55051C51.4379 3.17593 51.5742 2.89699 51.7266 2.71369C51.8789 2.53038 52.0954 2.43076 52.376 2.41482H54.168ZM48.9484 16.9874H51.5462L50.2112 12.3132L48.9484 16.9874ZM54.3003 3.80155C54.2361 3.63419 54.1559 3.53058 54.0597 3.49074C53.9715 3.44292 53.8152 3.41901 53.5907 3.41901H53.1698L58.8584 18.5774H59.4356C59.58 18.5774 59.6762 18.5495 59.7243 18.4937C59.7804 18.43 59.7764 18.3184 59.7123 18.159L54.3003 3.80155Z" fill="black"/>
<path d="M62.1537 9.00179C62.1537 8.73082 62.1777 8.49173 62.2258 8.28452C62.2739 8.06934 62.3661 7.894 62.5024 7.75852C62.6387 7.62303 62.8272 7.51943 63.0677 7.4477C63.3082 7.37597 63.6209 7.34011 64.0058 7.34011H68.9247C69.2855 7.34011 69.5941 7.37597 69.8507 7.4477C70.1153 7.51943 70.3037 7.64296 70.416 7.81829C70.5202 7.74656 70.6445 7.67085 70.7888 7.59115C70.9411 7.50349 71.1055 7.42379 71.2819 7.35206C71.4583 7.28033 71.6467 7.22056 71.8471 7.17274C72.0476 7.12493 72.256 7.10102 72.4725 7.10102C73.2422 7.10102 73.8395 7.36402 74.2645 7.89002C74.6974 8.41602 74.9139 9.18908 74.9139 10.2092V19.0197C74.9139 19.1552 74.8939 19.2628 74.8538 19.3425C74.8217 19.4142 74.7776 19.47 74.7215 19.5099C74.6734 19.5417 74.6133 19.5617 74.5411 19.5696C74.4689 19.5776 74.3968 19.5816 74.3246 19.5816H73.5549C73.3465 19.5816 73.2102 19.5218 73.146 19.4023C73.0899 19.2827 73.0618 19.1552 73.0618 19.0197V10.0897C73.0618 9.63539 72.9776 9.2887 72.8093 9.04961C72.6489 8.81052 72.3883 8.69097 72.0275 8.69097C71.8431 8.69097 71.6547 8.74278 71.4623 8.84638C71.2779 8.94202 71.1295 9.04563 71.0173 9.1572V17.908C71.0173 18.1869 70.9932 18.43 70.9451 18.6372C70.897 18.8444 70.8048 19.0197 70.6685 19.1632C70.5322 19.2987 70.3438 19.4023 70.1033 19.474C69.8627 19.5457 69.55 19.5816 69.1652 19.5816H64.0058C63.6209 19.5816 63.3082 19.5457 63.0677 19.474C62.8272 19.4023 62.6387 19.2987 62.5024 19.1632C62.3661 19.0277 62.2739 18.8563 62.2258 18.6491C62.1777 18.4419 62.1537 18.1988 62.1537 17.9199V9.00179ZM69.995 9.10938C69.995 8.83044 69.9189 8.63519 69.7665 8.52361C69.6222 8.40406 69.3857 8.34429 69.057 8.34429V18.5774C69.2494 18.5774 69.4057 18.5734 69.526 18.5655C69.6463 18.5495 69.7425 18.5176 69.8146 18.4698C69.8868 18.414 69.9349 18.3383 69.959 18.2427C69.983 18.1391 69.995 17.9956 69.995 17.8123V9.10938Z" fill="black"/>
<path d="M77.1389 9.00179C77.1389 8.73082 77.1629 8.49173 77.211 8.28452C77.2591 8.06934 77.3513 7.894 77.4876 7.75852C77.6239 7.62303 77.8123 7.51943 78.0529 7.4477C78.2934 7.37597 78.6061 7.34011 78.991 7.34011H83.9099C84.2706 7.34011 84.5753 7.37597 84.8239 7.4477C85.0724 7.51943 85.2528 7.64296 85.3651 7.81829C85.4693 7.73859 85.5976 7.6589 85.7499 7.5792C85.9023 7.49153 86.0666 7.41184 86.243 7.34011C86.4274 7.26838 86.6199 7.21259 86.8203 7.17274C87.0288 7.12493 87.2412 7.10102 87.4577 7.10102C88.1953 7.10102 88.7726 7.34409 89.1895 7.83025C89.2938 7.74258 89.4261 7.65491 89.5864 7.56724C89.7468 7.47958 89.9232 7.40387 90.1156 7.34011C90.308 7.26838 90.5085 7.21259 90.7169 7.17274C90.9334 7.12493 91.1459 7.10102 91.3543 7.10102C92.124 7.10102 92.7214 7.36402 93.1463 7.89002C93.5793 8.41602 93.7957 9.18908 93.7957 10.2092V19.0197C93.7957 19.1552 93.7757 19.2628 93.7356 19.3425C93.7035 19.4142 93.6594 19.47 93.6033 19.5099C93.5472 19.5417 93.4831 19.5617 93.4109 19.5696C93.3387 19.5776 93.2666 19.5816 93.1944 19.5816H92.4367C92.2283 19.5816 92.092 19.5218 92.0278 19.4023C91.9717 19.2827 91.9436 19.1552 91.9436 19.0197V10.0897C91.9436 9.63539 91.8595 9.2887 91.6911 9.04961C91.5307 8.81052 91.2702 8.69097 90.9094 8.69097C90.8131 8.69097 90.7129 8.7109 90.6087 8.75075C90.5045 8.78263 90.4002 8.82646 90.296 8.88225C90.1998 8.93007 90.1076 8.98585 90.0194 9.04961C89.9392 9.1054 89.8711 9.16119 89.8149 9.21698C89.839 9.3684 89.859 9.52779 89.8751 9.69516C89.8911 9.85455 89.8991 10.0259 89.8991 10.2092V19.0197C89.8991 19.1552 89.8791 19.2628 89.839 19.3425C89.8069 19.4142 89.7628 19.47 89.7067 19.5099C89.6586 19.5417 89.5984 19.5617 89.5263 19.5696C89.4541 19.5776 89.382 19.5816 89.3098 19.5816H88.5401C88.3316 19.5816 88.1953 19.5218 88.1312 19.4023C88.0751 19.2827 88.047 19.1552 88.047 19.0197V10.0897C88.047 9.63539 87.9628 9.2887 87.7945 9.04961C87.6341 8.81052 87.3735 8.69097 87.0127 8.69097C86.8283 8.69097 86.6399 8.74278 86.4475 8.84638C86.2631 8.94202 86.1147 9.04563 86.0025 9.1572V17.908C86.0025 18.1869 85.9784 18.43 85.9303 18.6372C85.8822 18.8444 85.79 19.0197 85.6537 19.1632C85.5174 19.2987 85.329 19.4023 85.0885 19.474C84.8479 19.5457 84.5352 19.5816 84.1504 19.5816H78.991C78.6061 19.5816 78.2934 19.5457 78.0529 19.474C77.8123 19.4023 77.6239 19.2987 77.4876 19.1632C77.3513 19.0277 77.2591 18.8563 77.211 18.6491C77.1629 18.4419 77.1389 18.1988 77.1389 17.9199V9.00179ZM84.9802 9.10938C84.9802 8.83044 84.9041 8.63519 84.7517 8.52361C84.6074 8.40406 84.3709 8.34429 84.0421 8.34429V18.5774C84.2346 18.5774 84.3909 18.5734 84.5112 18.5655C84.6314 18.5495 84.7277 18.5176 84.7998 18.4698C84.872 18.414 84.9201 18.3383 84.9441 18.2427C84.9682 18.1391 84.9802 17.9956 84.9802 17.8123V9.10938Z" fill="black"/>
<path d="M102.972 20C102.371 20 101.769 19.9522 101.168 19.8565C100.567 19.7609 99.9895 19.6095 99.4362 19.4023C98.891 19.1951 98.3819 18.9241 97.9089 18.5894C97.4358 18.2546 97.0229 17.8442 96.6701 17.358C96.3253 16.8719 96.0527 16.31 95.8523 15.6724C95.6519 15.0269 95.5516 14.2897 95.5516 13.4608C95.5516 12.6479 95.6519 11.9227 95.8523 11.2851C96.0527 10.6396 96.3253 10.0737 96.6701 9.58757C97.0229 9.10141 97.4358 8.69097 97.9089 8.35625C98.3819 8.01355 98.891 7.73859 99.4362 7.53138C99.9895 7.3162 100.567 7.16079 101.168 7.06515C101.769 6.96952 102.371 6.9217 102.972 6.9217C103.525 6.9217 104.091 6.95756 104.668 7.02929C105.253 7.09305 105.818 7.21658 106.364 7.39988C106.917 7.57521 107.434 7.81829 107.915 8.12911C108.404 8.43196 108.829 8.82247 109.19 9.30066C109.559 9.77884 109.847 10.3527 110.056 11.0221C110.272 11.6836 110.38 12.4646 110.38 13.3652C110.38 14.2897 110.276 15.0986 110.068 15.792C109.859 16.4774 109.571 17.0671 109.202 17.5613C108.841 18.0474 108.42 18.4499 107.939 18.7687C107.458 19.0875 106.941 19.3385 106.388 19.5218C105.842 19.6972 105.277 19.8207 104.692 19.8924C104.107 19.9641 103.533 20 102.972 20ZM106.664 17.1309C106.913 17.1309 107.157 17.0791 107.398 16.9755C107.646 16.8639 107.863 16.6687 108.047 16.3897C108.24 16.1108 108.392 15.7282 108.504 15.2421C108.625 14.748 108.685 14.1223 108.685 13.3652C108.685 12.6479 108.625 12.0582 108.504 11.5959C108.392 11.1337 108.24 10.7711 108.047 10.5081C107.855 10.2371 107.638 10.0498 107.398 9.9462C107.157 9.8426 106.913 9.7908 106.664 9.7908C106.472 9.7908 106.255 9.83064 106.015 9.91034C105.782 9.99004 105.562 10.1614 105.353 10.4244C105.153 10.6794 104.985 11.05 104.848 11.5362C104.712 12.0143 104.644 12.6559 104.644 13.4608C104.644 14.2658 104.7 14.9113 104.812 15.3975C104.924 15.8836 105.073 16.2542 105.257 16.5093C105.442 16.7643 105.654 16.9317 105.895 17.0114C106.143 17.0911 106.4 17.1309 106.664 17.1309ZM105.762 17.6091C105.498 17.5613 105.237 17.4696 104.981 17.3341C104.724 17.1986 104.495 16.9795 104.295 16.6766C104.095 16.3658 103.93 15.9554 103.802 15.4453C103.682 14.9273 103.622 14.2658 103.622 13.4608C103.622 12.9269 103.654 12.4567 103.718 12.0502C103.79 11.6438 103.882 11.2931 103.994 10.9982C104.115 10.7033 104.251 10.4563 104.403 10.257C104.556 10.0578 104.708 9.8944 104.86 9.76689C105.021 9.6314 105.177 9.53178 105.329 9.46802C105.49 9.39629 105.634 9.34449 105.762 9.31261C105.482 9.31261 105.161 9.37637 104.8 9.50389C104.439 9.62343 104.099 9.83861 103.778 10.1494C103.457 10.4603 103.185 10.8866 102.96 11.4286C102.744 11.9625 102.635 12.64 102.635 13.4608C102.635 14.2897 102.732 14.9711 102.924 15.5051C103.116 16.0391 103.361 16.4614 103.658 16.7723C103.962 17.0831 104.299 17.3023 104.668 17.4298C105.045 17.5493 105.409 17.6091 105.762 17.6091Z" fill="black"/>
<path d="M112.136 1.66169C112.136 1.39072 112.16 1.15162 112.209 0.944411C112.257 0.729229 112.349 0.553895 112.485 0.41841C112.621 0.282925 112.81 0.179319 113.05 0.107591C113.291 0.0358637 113.604 0 113.988 0H119.256C119.625 0 119.922 0.0358637 120.146 0.107591C120.371 0.171349 120.547 0.27097 120.675 0.406455C120.804 0.541941 120.888 0.71329 120.928 0.920502C120.976 1.12771 121 1.37079 121 1.64973V17.9438C121 18.2148 120.976 18.4539 120.928 18.6611C120.88 18.8603 120.792 19.0317 120.663 19.1751C120.535 19.3106 120.355 19.4142 120.122 19.486C119.898 19.5497 119.601 19.5816 119.232 19.5816H113.988C113.604 19.5816 113.291 19.5457 113.05 19.474C112.81 19.4023 112.621 19.2987 112.485 19.1632C112.349 19.0277 112.257 18.8563 112.209 18.6491C112.16 18.4419 112.136 18.1988 112.136 17.9199V1.66169ZM119.978 1.76928C119.978 1.59394 119.966 1.45447 119.942 1.35087C119.918 1.24726 119.869 1.17155 119.797 1.12373C119.725 1.06794 119.629 1.03606 119.509 1.02809C119.388 1.01215 119.232 1.00418 119.04 1.00418V18.5774C119.232 18.5774 119.388 18.5734 119.509 18.5655C119.629 18.5495 119.725 18.5176 119.797 18.4698C119.869 18.414 119.918 18.3383 119.942 18.2427C119.966 18.1391 119.978 17.9956 119.978 17.8123V1.76928Z" fill="black"/>
</svg>
