<svg width="719" height="294" viewBox="0 0 719 294" fill="none" xmlns="http://www.w3.org/2000/svg">
<rect width="719" height="294" fill="#F3F3F3"/>
<rect x="233.5" y="140" width="50" height="50" rx="25" fill="white"/>
<rect x="231.5" y="138" width="54" height="54" rx="27" stroke="black" stroke-opacity="0.14" stroke-width="4"/>
<path d="M258.8 171L259.425 168.9C260.325 168.683 261.063 168.217 261.638 167.5C262.213 166.783 262.5 165.95 262.5 165C262.5 163.9 262.108 162.958 261.325 162.175C260.542 161.392 259.6 161 258.5 161C257.55 161 256.717 161.288 256 161.863C255.283 162.438 254.817 163.175 254.6 164.075L252.5 164.7C252.583 163.1 253.2 161.75 254.35 160.65C255.5 159.55 256.883 159 258.5 159C260.167 159 261.583 159.583 262.75 160.75C263.917 161.917 264.5 163.333 264.5 165C264.5 166.617 263.95 168 262.85 169.15C261.75 170.3 260.4 170.917 258.8 171ZM249.975 175.5L248 173.525L252.275 169.25L248.5 168L258.5 165L255.5 175L254.25 171.225L249.975 175.5Z" fill="#282828"/>
<rect x="299.5" y="140" width="116" height="50" rx="25" fill="white"/>
<rect x="297.5" y="138" width="120" height="54" rx="27" stroke="black" stroke-opacity="0.14" stroke-width="4"/>
<path d="M329.28 158.2H334.048C334.88 158.2 335.632 158.376 336.304 158.728C336.987 159.069 337.52 159.544 337.904 160.152C338.299 160.76 338.496 161.437 338.496 162.184C338.496 162.952 338.309 163.645 337.936 164.264C337.573 164.883 337.067 165.368 336.416 165.72C335.776 166.072 335.061 166.248 334.272 166.248H331.168V171H329.28V158.2ZM334.176 164.616C334.955 164.616 335.547 164.392 335.952 163.944C336.357 163.485 336.56 162.899 336.56 162.184C336.56 161.491 336.341 160.925 335.904 160.488C335.467 160.051 334.837 159.832 334.016 159.832H331.168V164.616H334.176ZM347.53 171H345.722V169.304C345.466 169.869 345.082 170.333 344.57 170.696C344.058 171.059 343.524 171.24 342.97 171.24C342.362 171.24 341.812 171.064 341.322 170.712C340.831 170.36 340.442 169.875 340.154 169.256C339.876 168.627 339.738 167.928 339.738 167.16V161.72H341.562V167.032C341.562 167.8 341.732 168.419 342.074 168.888C342.426 169.357 342.906 169.592 343.514 169.592C344.143 169.592 344.666 169.357 345.082 168.888C345.498 168.408 345.706 167.789 345.706 167.032V161.72H347.53V171ZM354.385 171.24C353.766 171.24 353.19 171.069 352.657 170.728C352.134 170.387 351.761 169.949 351.537 169.416V171H349.713V158.2H351.537V163.352C351.782 162.808 352.166 162.36 352.689 162.008C353.222 161.656 353.788 161.48 354.385 161.48C355.089 161.48 355.724 161.693 356.289 162.12C356.865 162.547 357.313 163.133 357.633 163.88C357.964 164.616 358.129 165.443 358.129 166.36C358.129 167.277 357.964 168.109 357.633 168.856C357.313 169.592 356.865 170.173 356.289 170.6C355.724 171.027 355.089 171.24 354.385 171.24ZM351.537 166.36C351.537 166.979 351.633 167.544 351.825 168.056C352.028 168.557 352.31 168.957 352.673 169.256C353.036 169.544 353.452 169.688 353.921 169.688C354.39 169.688 354.801 169.544 355.153 169.256C355.516 168.957 355.793 168.557 355.985 168.056C356.177 167.555 356.273 166.989 356.273 166.36C356.273 165.4 356.06 164.611 355.633 163.992C355.206 163.363 354.636 163.048 353.921 163.048C353.452 163.048 353.036 163.192 352.673 163.48C352.31 163.768 352.028 164.168 351.825 164.68C351.633 165.181 351.537 165.741 351.537 166.36ZM359.822 158.2H361.646V171H359.822V158.2ZM364.862 160.488C364.542 160.488 364.27 160.381 364.046 160.168C363.833 159.955 363.726 159.688 363.726 159.368C363.726 159.059 363.833 158.803 364.046 158.6C364.27 158.387 364.542 158.28 364.862 158.28C365.182 158.28 365.449 158.387 365.662 158.6C365.886 158.803 365.998 159.059 365.998 159.368C365.998 159.688 365.886 159.955 365.662 160.168C365.449 160.381 365.182 160.488 364.862 160.488ZM363.95 161.72H365.774V171H363.95V161.72ZM371.704 171.24C370.958 171.24 370.275 171.112 369.656 170.856C369.048 170.6 368.568 170.248 368.216 169.8C367.875 169.352 367.704 168.851 367.704 168.296H369.528C369.528 168.691 369.736 169.027 370.152 169.304C370.568 169.571 371.086 169.704 371.704 169.704C372.312 169.704 372.814 169.576 373.208 169.32C373.614 169.053 373.816 168.723 373.816 168.328C373.816 168.051 373.715 167.832 373.512 167.672C373.31 167.501 373.054 167.368 372.744 167.272C372.435 167.176 372.008 167.075 371.464 166.968C370.718 166.829 370.099 166.675 369.608 166.504C369.128 166.333 368.718 166.067 368.376 165.704C368.035 165.331 367.864 164.829 367.864 164.2C367.864 163.688 368.019 163.224 368.328 162.808C368.648 162.392 369.086 162.067 369.64 161.832C370.195 161.597 370.819 161.48 371.512 161.48C372.227 161.48 372.872 161.603 373.448 161.848C374.035 162.093 374.494 162.429 374.824 162.856C375.155 163.272 375.32 163.741 375.32 164.264H373.496C373.496 163.912 373.304 163.619 372.92 163.384C372.547 163.139 372.078 163.016 371.512 163.016C371 163.016 370.568 163.133 370.216 163.368C369.864 163.592 369.688 163.869 369.688 164.2C369.688 164.467 369.79 164.685 369.992 164.856C370.195 165.027 370.451 165.16 370.76 165.256C371.07 165.341 371.496 165.437 372.04 165.544C372.798 165.693 373.416 165.853 373.896 166.024C374.376 166.195 374.787 166.467 375.128 166.84C375.47 167.203 375.64 167.699 375.64 168.328C375.64 168.883 375.47 169.384 375.128 169.832C374.787 170.269 374.318 170.616 373.72 170.872C373.123 171.117 372.451 171.24 371.704 171.24ZM377.447 158.2H379.271V163.384C379.538 162.819 379.922 162.36 380.423 162.008C380.925 161.656 381.453 161.48 382.007 161.48C382.615 161.48 383.165 161.656 383.655 162.008C384.146 162.36 384.53 162.851 384.807 163.48C385.095 164.099 385.239 164.792 385.239 165.56V171H383.415V165.688C383.415 164.899 383.255 164.275 382.935 163.816C382.615 163.357 382.125 163.128 381.463 163.128C380.834 163.128 380.311 163.368 379.895 163.848C379.479 164.317 379.271 164.931 379.271 165.688V171H377.447V158.2Z" fill="#282828"/>
<g clip-path="url(#clip0_191_134)">
<path d="M485.5 167C485.5 152.088 473.412 140 458.5 140C443.588 140 431.5 152.088 431.5 167C431.5 181.912 443.588 194 458.5 194C473.412 194 485.5 181.912 485.5 167Z" fill="#146EF5"/>
<path fill-rule="evenodd" clip-rule="evenodd" d="M476.603 157.438L465.861 178.438H455.771L460.266 169.734H460.065C456.356 174.549 450.822 177.718 442.938 178.438V169.855C442.938 169.855 447.982 169.557 450.947 166.439H442.938V157.438H451.939V164.841L452.141 164.84L455.819 157.438H462.627V164.794L462.829 164.794L466.645 157.438H476.603Z" fill="white"/>
</g>
<path d="M196.988 119V107.64H199.532C200.535 107.64 201.404 107.864 202.14 108.312C202.876 108.749 203.441 109.395 203.836 110.248C204.241 111.091 204.444 112.12 204.444 113.336C204.444 114.552 204.241 115.581 203.836 116.424C203.441 117.267 202.876 117.907 202.14 118.344C201.404 118.781 200.535 119 199.532 119H196.988ZM198.076 117.944H199.452C200.679 117.944 201.623 117.555 202.284 116.776C202.956 115.997 203.292 114.851 203.292 113.336C203.292 111.811 202.956 110.659 202.284 109.88C201.623 109.091 200.679 108.696 199.452 108.696H198.076V117.944ZM210.038 119.192C209.238 119.192 208.55 119.005 207.974 118.632C207.408 118.248 206.976 117.725 206.678 117.064C206.379 116.392 206.23 115.624 206.23 114.76C206.23 113.896 206.379 113.133 206.678 112.472C206.976 111.8 207.403 111.277 207.958 110.904C208.523 110.52 209.195 110.328 209.974 110.328C210.742 110.328 211.398 110.509 211.942 110.872C212.496 111.235 212.923 111.747 213.222 112.408C213.531 113.069 213.686 113.843 213.686 114.728V115.064H207.334C207.376 116.067 207.638 116.84 208.118 117.384C208.598 117.917 209.238 118.184 210.038 118.184C210.667 118.184 211.179 118.035 211.574 117.736C211.968 117.437 212.24 117.043 212.39 116.552L213.526 116.632C213.312 117.379 212.896 117.992 212.278 118.472C211.67 118.952 210.923 119.192 210.038 119.192ZM207.334 114.12H212.518C212.464 113.213 212.214 112.525 211.766 112.056C211.318 111.576 210.72 111.336 209.974 111.336C209.248 111.336 208.651 111.576 208.182 112.056C207.712 112.536 207.43 113.224 207.334 114.12ZM219.648 119.192C218.922 119.192 218.293 119.069 217.76 118.824C217.237 118.568 216.826 118.232 216.528 117.816C216.229 117.389 216.058 116.915 216.016 116.392L217.12 116.312C217.194 116.877 217.445 117.331 217.872 117.672C218.298 118.013 218.89 118.184 219.648 118.184C220.373 118.184 220.922 118.072 221.296 117.848C221.68 117.624 221.872 117.288 221.872 116.84C221.872 116.573 221.808 116.349 221.68 116.168C221.562 115.987 221.328 115.832 220.976 115.704C220.624 115.565 220.096 115.437 219.391 115.32C218.57 115.171 217.93 114.995 217.472 114.792C217.024 114.579 216.709 114.312 216.528 113.992C216.357 113.672 216.272 113.288 216.272 112.84C216.272 112.349 216.394 111.917 216.64 111.544C216.885 111.171 217.237 110.877 217.696 110.664C218.165 110.44 218.736 110.328 219.408 110.328C220.09 110.328 220.661 110.451 221.12 110.696C221.589 110.941 221.957 111.267 222.224 111.672C222.501 112.067 222.682 112.504 222.767 112.984L221.664 113.08C221.6 112.749 221.472 112.456 221.28 112.2C221.098 111.933 220.848 111.725 220.528 111.576C220.218 111.416 219.84 111.336 219.391 111.336C218.72 111.336 218.213 111.475 217.872 111.752C217.53 112.029 217.36 112.392 217.36 112.84C217.36 113.16 217.429 113.416 217.568 113.608C217.706 113.8 217.941 113.955 218.272 114.072C218.613 114.189 219.077 114.296 219.664 114.392C220.517 114.52 221.184 114.691 221.664 114.904C222.144 115.117 222.48 115.379 222.672 115.688C222.864 115.997 222.96 116.381 222.96 116.84C222.96 117.331 222.821 117.752 222.544 118.104C222.266 118.456 221.877 118.728 221.376 118.92C220.885 119.101 220.309 119.192 219.648 119.192ZM229.113 119V110.52H230.169V119H229.113ZM225.673 119V118.056H233.129V119H225.673ZM225.833 111.464V110.52H230.169V111.464H225.833ZM229.017 109.112V107.688H230.137V109.112H229.017ZM238.595 121.592C237.998 121.592 237.454 121.485 236.963 121.272C236.483 121.069 236.088 120.781 235.779 120.408C235.47 120.035 235.272 119.603 235.187 119.112L236.291 119.048C236.387 119.507 236.622 119.875 236.995 120.152C237.368 120.44 237.902 120.584 238.595 120.584C239.416 120.584 240.051 120.392 240.499 120.008C240.947 119.624 241.171 119.064 241.171 118.328V116.872C240.947 117.384 240.6 117.795 240.131 118.104C239.672 118.413 239.134 118.568 238.515 118.568C237.8 118.568 237.171 118.397 236.627 118.056C236.083 117.704 235.656 117.219 235.347 116.6C235.038 115.981 234.883 115.261 234.883 114.44C234.883 113.619 235.032 112.904 235.331 112.296C235.64 111.677 236.062 111.197 236.595 110.856C237.139 110.504 237.768 110.328 238.483 110.328C239.123 110.328 239.683 110.493 240.163 110.824C240.654 111.144 241 111.571 241.203 112.104V110.52H242.227V118.328C242.227 119 242.078 119.581 241.779 120.072C241.491 120.563 241.075 120.936 240.531 121.192C239.998 121.459 239.352 121.592 238.595 121.592ZM238.563 117.56C239.342 117.56 239.966 117.283 240.435 116.728C240.915 116.163 241.16 115.4 241.171 114.44C241.171 113.821 241.064 113.283 240.851 112.824C240.638 112.355 240.334 111.992 239.939 111.736C239.544 111.469 239.086 111.336 238.563 111.336C237.763 111.336 237.134 111.619 236.675 112.184C236.227 112.739 236.003 113.491 236.003 114.44C236.003 115.4 236.232 116.163 236.691 116.728C237.15 117.283 237.774 117.56 238.563 117.56ZM244.925 119V110.52H245.885L245.933 112.744L245.805 112.648C245.89 112.125 246.071 111.693 246.349 111.352C246.637 111.011 246.983 110.755 247.389 110.584C247.805 110.413 248.242 110.328 248.701 110.328C249.351 110.328 249.89 110.472 250.317 110.76C250.743 111.048 251.063 111.437 251.277 111.928C251.501 112.408 251.613 112.947 251.613 113.544V119H250.557V113.928C250.557 113.096 250.391 112.445 250.061 111.976C249.73 111.507 249.202 111.272 248.477 111.272C247.997 111.272 247.565 111.379 247.181 111.592C246.807 111.805 246.514 112.109 246.301 112.504C246.087 112.899 245.981 113.373 245.981 113.928V119H244.925Z" fill="black"/>
<path d="M282.103 115.56C281.836 115.56 281.591 115.496 281.367 115.368C281.143 115.229 280.967 115.053 280.839 114.84C280.711 114.616 280.647 114.371 280.647 114.104C280.647 113.827 280.711 113.581 280.839 113.368C280.967 113.144 281.143 112.968 281.367 112.84C281.591 112.712 281.836 112.648 282.103 112.648C282.38 112.648 282.626 112.712 282.839 112.84C283.063 112.968 283.239 113.144 283.367 113.368C283.495 113.581 283.559 113.827 283.559 114.104C283.559 114.371 283.495 114.616 283.367 114.84C283.239 115.053 283.063 115.229 282.839 115.368C282.626 115.496 282.38 115.56 282.103 115.56Z" fill="black"/>
<path d="M312.828 119V117.944H315.756V108.696H312.828V107.64H319.772V108.696H316.844V117.944H319.772V119H312.828ZM321.782 119V110.52H322.758L322.806 112.584L322.646 112.552C322.752 111.848 322.96 111.304 323.27 110.92C323.59 110.525 324.006 110.328 324.518 110.328C325.04 110.328 325.44 110.531 325.718 110.936C326.006 111.331 326.182 111.923 326.246 112.712H326.07C326.176 111.955 326.4 111.368 326.742 110.952C327.094 110.536 327.536 110.328 328.07 110.328C328.742 110.328 329.232 110.568 329.542 111.048C329.851 111.517 330.006 112.285 330.006 113.352V119H328.95V113.496C328.95 112.685 328.854 112.115 328.662 111.784C328.48 111.443 328.192 111.272 327.798 111.272C327.542 111.272 327.307 111.363 327.094 111.544C326.891 111.725 326.726 111.987 326.598 112.328C326.48 112.669 326.422 113.085 326.422 113.576V119H325.366V113.56C325.366 112.792 325.27 112.221 325.078 111.848C324.896 111.464 324.603 111.272 324.198 111.272C323.942 111.272 323.712 111.363 323.51 111.544C323.307 111.725 323.142 111.992 323.014 112.344C322.896 112.685 322.838 113.096 322.838 113.576V119H321.782ZM332.016 121.4V110.52H332.992L333.024 112.728L332.848 112.648C333.061 111.891 333.424 111.315 333.936 110.92C334.458 110.525 335.066 110.328 335.76 110.328C336.56 110.328 337.226 110.531 337.76 110.936C338.293 111.331 338.693 111.864 338.96 112.536C339.226 113.197 339.36 113.939 339.36 114.76C339.36 115.581 339.226 116.328 338.96 117C338.693 117.661 338.293 118.195 337.76 118.6C337.237 118.995 336.576 119.192 335.776 119.192C335.306 119.192 334.869 119.101 334.464 118.92C334.069 118.728 333.733 118.472 333.456 118.152C333.178 117.832 332.997 117.469 332.912 117.064L333.072 116.856V121.4H332.016ZM335.696 118.184C336.485 118.184 337.104 117.88 337.552 117.272C338.01 116.664 338.24 115.827 338.24 114.76C338.24 113.693 338.01 112.856 337.552 112.248C337.104 111.64 336.48 111.336 335.68 111.336C335.157 111.336 334.698 111.475 334.304 111.752C333.92 112.019 333.616 112.408 333.392 112.92C333.178 113.432 333.072 114.045 333.072 114.76C333.072 115.475 333.178 116.088 333.392 116.6C333.616 117.112 333.925 117.507 334.32 117.784C334.714 118.051 335.173 118.184 335.696 118.184ZM344.793 119V109.72C344.793 109.357 344.692 109.08 344.489 108.888C344.297 108.685 344.02 108.584 343.657 108.584H341.673V107.64H343.689C344.383 107.64 344.916 107.827 345.289 108.2C345.663 108.573 345.849 109.107 345.849 109.8V119H344.793ZM341.353 119V118.056H348.809V119H341.353ZM354.819 119.192C354.019 119.192 353.331 119.005 352.755 118.632C352.19 118.248 351.758 117.725 351.459 117.064C351.16 116.392 351.011 115.624 351.011 114.76C351.011 113.896 351.16 113.133 351.459 112.472C351.758 111.8 352.184 111.277 352.739 110.904C353.304 110.52 353.976 110.328 354.755 110.328C355.523 110.328 356.179 110.509 356.723 110.872C357.278 111.235 357.704 111.747 358.003 112.408C358.312 113.069 358.467 113.843 358.467 114.728V115.064H352.115C352.158 116.067 352.419 116.84 352.899 117.384C353.379 117.917 354.019 118.184 354.819 118.184C355.448 118.184 355.96 118.035 356.355 117.736C356.75 117.437 357.022 117.043 357.171 116.552L358.307 116.632C358.094 117.379 357.678 117.992 357.059 118.472C356.451 118.952 355.704 119.192 354.819 119.192ZM352.115 114.12H357.299C357.246 113.213 356.995 112.525 356.547 112.056C356.099 111.576 355.502 111.336 354.755 111.336C354.03 111.336 353.432 111.576 352.963 112.056C352.494 112.536 352.211 113.224 352.115 114.12ZM360.157 119V110.52H361.133L361.181 112.584L361.021 112.552C361.127 111.848 361.335 111.304 361.645 110.92C361.965 110.525 362.381 110.328 362.893 110.328C363.415 110.328 363.815 110.531 364.093 110.936C364.381 111.331 364.557 111.923 364.621 112.712H364.445C364.551 111.955 364.775 111.368 365.117 110.952C365.469 110.536 365.911 110.328 366.445 110.328C367.117 110.328 367.607 110.568 367.917 111.048C368.226 111.517 368.381 112.285 368.381 113.352V119H367.325V113.496C367.325 112.685 367.229 112.115 367.037 111.784C366.855 111.443 366.567 111.272 366.173 111.272C365.917 111.272 365.682 111.363 365.469 111.544C365.266 111.725 365.101 111.987 364.973 112.328C364.855 112.669 364.797 113.085 364.797 113.576V119H363.741V113.56C363.741 112.792 363.645 112.221 363.453 111.848C363.271 111.464 362.978 111.272 362.573 111.272C362.317 111.272 362.087 111.363 361.885 111.544C361.682 111.725 361.517 111.992 361.389 112.344C361.271 112.685 361.213 113.096 361.213 113.576V119H360.157ZM374.007 119.192C373.207 119.192 372.519 119.005 371.943 118.632C371.377 118.248 370.945 117.725 370.647 117.064C370.348 116.392 370.199 115.624 370.199 114.76C370.199 113.896 370.348 113.133 370.647 112.472C370.945 111.8 371.372 111.277 371.927 110.904C372.492 110.52 373.164 110.328 373.943 110.328C374.711 110.328 375.367 110.509 375.911 110.872C376.465 111.235 376.892 111.747 377.191 112.408C377.5 113.069 377.655 113.843 377.655 114.728V115.064H371.303C371.345 116.067 371.607 116.84 372.087 117.384C372.567 117.917 373.207 118.184 374.007 118.184C374.636 118.184 375.148 118.035 375.543 117.736C375.937 117.437 376.209 117.043 376.359 116.552L377.495 116.632C377.281 117.379 376.865 117.992 376.247 118.472C375.639 118.952 374.892 119.192 374.007 119.192ZM371.303 114.12H376.487C376.433 113.213 376.183 112.525 375.735 112.056C375.287 111.576 374.689 111.336 373.943 111.336C373.217 111.336 372.62 111.576 372.151 112.056C371.681 112.536 371.399 113.224 371.303 114.12ZM380.112 119V110.52H381.072L381.12 112.744L380.992 112.648C381.078 112.125 381.259 111.693 381.536 111.352C381.824 111.011 382.171 110.755 382.576 110.584C382.992 110.413 383.43 110.328 383.888 110.328C384.539 110.328 385.078 110.472 385.504 110.76C385.931 111.048 386.251 111.437 386.464 111.928C386.688 112.408 386.8 112.947 386.8 113.544V119H385.744V113.928C385.744 113.096 385.579 112.445 385.248 111.976C384.918 111.507 384.39 111.272 383.664 111.272C383.184 111.272 382.752 111.379 382.368 111.592C381.995 111.805 381.702 112.109 381.488 112.504C381.275 112.899 381.168 113.373 381.168 113.928V119H380.112ZM394.186 119C393.461 119 392.906 118.819 392.522 118.456C392.149 118.093 391.962 117.555 391.962 116.84V108.536H393.018V116.872C393.018 117.267 393.114 117.565 393.306 117.768C393.498 117.96 393.786 118.056 394.17 118.056H396.458V119H394.186ZM389.098 111.464V110.52H396.458V111.464H389.098Z" fill="black"/>
<path d="M427.103 115.56C426.836 115.56 426.591 115.496 426.367 115.368C426.143 115.229 425.967 115.053 425.839 114.84C425.711 114.616 425.647 114.371 425.647 114.104C425.647 113.827 425.711 113.581 425.839 113.368C425.967 113.144 426.143 112.968 426.367 112.84C426.591 112.712 426.836 112.648 427.103 112.648C427.38 112.648 427.626 112.712 427.839 112.84C428.063 112.968 428.239 113.144 428.367 113.368C428.495 113.581 428.559 113.827 428.559 114.104C428.559 114.371 428.495 114.616 428.367 114.84C428.239 115.053 428.063 115.229 427.839 115.368C427.626 115.496 427.38 115.56 427.103 115.56Z" fill="black"/>
<path d="M458.42 119L457.028 107.64H458.164L459.396 118.376H459.268L460.708 108.92H461.892L463.332 118.376H463.204L464.436 107.64H465.572L464.18 119H462.548L461.124 109.736H461.476L460.052 119H458.42ZM471.038 119.192C470.238 119.192 469.55 119.005 468.974 118.632C468.408 118.248 467.976 117.725 467.678 117.064C467.379 116.392 467.23 115.624 467.23 114.76C467.23 113.896 467.379 113.133 467.678 112.472C467.976 111.8 468.403 111.277 468.958 110.904C469.523 110.52 470.195 110.328 470.974 110.328C471.742 110.328 472.398 110.509 472.942 110.872C473.496 111.235 473.923 111.747 474.222 112.408C474.531 113.069 474.686 113.843 474.686 114.728V115.064H468.334C468.376 116.067 468.638 116.84 469.118 117.384C469.598 117.917 470.238 118.184 471.038 118.184C471.667 118.184 472.179 118.035 472.574 117.736C472.968 117.437 473.24 117.043 473.39 116.552L474.526 116.632C474.312 117.379 473.896 117.992 473.278 118.472C472.67 118.952 471.923 119.192 471.038 119.192ZM468.334 114.12H473.518C473.464 113.213 473.214 112.525 472.766 112.056C472.318 111.576 471.72 111.336 470.974 111.336C470.248 111.336 469.651 111.576 469.182 112.056C468.712 112.536 468.43 113.224 468.334 114.12ZM480.968 119.192C480.328 119.192 479.768 119.032 479.288 118.712C478.808 118.381 478.45 117.955 478.216 117.432L478.168 119H477.24V107.64H478.296V112.008C478.509 111.549 478.85 111.155 479.32 110.824C479.789 110.493 480.338 110.328 480.968 110.328C481.704 110.328 482.338 110.509 482.872 110.872C483.416 111.235 483.832 111.747 484.12 112.408C484.418 113.069 484.568 113.853 484.568 114.76C484.568 115.667 484.418 116.451 484.12 117.112C483.832 117.773 483.416 118.285 482.872 118.648C482.338 119.011 481.704 119.192 480.968 119.192ZM480.92 118.184C481.698 118.184 482.317 117.88 482.776 117.272C483.234 116.653 483.464 115.816 483.464 114.76C483.464 113.704 483.234 112.872 482.776 112.264C482.317 111.645 481.704 111.336 480.936 111.336C480.392 111.336 479.922 111.48 479.528 111.768C479.133 112.045 478.829 112.44 478.616 112.952C478.402 113.464 478.296 114.067 478.296 114.76C478.296 115.443 478.402 116.045 478.616 116.568C478.829 117.08 479.128 117.48 479.512 117.768C479.906 118.045 480.376 118.184 480.92 118.184ZM488.817 119V109.784C488.817 109.101 488.999 108.573 489.361 108.2C489.735 107.827 490.279 107.64 490.993 107.64H493.713V108.584H490.977C490.625 108.584 490.353 108.691 490.161 108.904C489.969 109.107 489.873 109.395 489.873 109.768V119H488.817ZM486.449 111.464V110.52H493.553V111.464H486.449ZM499.387 119V109.72C499.387 109.357 499.286 109.08 499.083 108.888C498.891 108.685 498.614 108.584 498.251 108.584H496.267V107.64H498.283C498.976 107.64 499.51 107.827 499.883 108.2C500.256 108.573 500.443 109.107 500.443 109.8V119H499.387ZM495.947 119V118.056H503.403V119H495.947ZM509.269 119.192C508.501 119.192 507.834 119.011 507.269 118.648C506.714 118.285 506.282 117.773 505.973 117.112C505.663 116.44 505.509 115.656 505.509 114.76C505.509 113.853 505.663 113.069 505.973 112.408C506.282 111.747 506.714 111.235 507.269 110.872C507.834 110.509 508.501 110.328 509.269 110.328C510.037 110.328 510.703 110.509 511.269 110.872C511.834 111.235 512.266 111.747 512.565 112.408C512.874 113.069 513.029 113.853 513.029 114.76C513.029 115.656 512.874 116.44 512.565 117.112C512.266 117.773 511.834 118.285 511.269 118.648C510.703 119.011 510.037 119.192 509.269 119.192ZM509.269 118.184C510.101 118.184 510.751 117.88 511.221 117.272C511.69 116.653 511.925 115.816 511.925 114.76C511.925 113.704 511.69 112.872 511.221 112.264C510.751 111.645 510.101 111.336 509.269 111.336C508.437 111.336 507.786 111.645 507.317 112.264C506.847 112.872 506.613 113.704 506.613 114.76C506.613 115.816 506.847 116.653 507.317 117.272C507.786 117.88 508.437 118.184 509.269 118.184ZM516.255 119L514.431 110.52H515.583L516.943 117.896L518.351 111.688H519.375L520.783 117.896L522.142 110.52H523.295L521.487 119H520.159L518.863 113.224L517.567 119H516.255Z" fill="black"/>
<rect x="20.5" y="16.5" width="679" height="261" stroke="#D9D9D9"/>
<defs>
<clipPath id="clip0_191_134">
<rect width="54" height="54" fill="white" transform="translate(431.5 140)"/>
</clipPath>
</defs>
</svg>
