<svg width="719" height="294" viewBox="0 0 719 294" fill="none" xmlns="http://www.w3.org/2000/svg">
<rect width="719" height="294" fill="#F3F3F3"/>
<rect x="203" y="140" width="116" height="50" rx="25" fill="white"/>
<rect x="201" y="138" width="120" height="54" rx="27" stroke="black" stroke-opacity="0.14" stroke-width="4"/>
<path d="M234.78 158.2H239.804C240.561 158.2 241.244 158.349 241.852 158.648C242.46 158.936 242.94 159.336 243.292 159.848C243.644 160.36 243.82 160.931 243.82 161.56C243.82 162.243 243.585 162.845 243.116 163.368C242.647 163.891 242.039 164.243 241.292 164.424C242.135 164.605 242.817 164.968 243.34 165.512C243.863 166.056 244.124 166.691 244.124 167.416C244.124 168.088 243.927 168.696 243.532 169.24C243.148 169.784 242.615 170.216 241.932 170.536C241.249 170.845 240.487 171 239.644 171H234.78V158.2ZM239.596 169.384C240.428 169.384 241.068 169.192 241.516 168.808C241.975 168.424 242.204 167.933 242.204 167.336C242.204 166.739 241.975 166.243 241.516 165.848C241.068 165.453 240.471 165.256 239.724 165.256H236.668V169.384H239.596ZM239.5 163.656C240.279 163.656 240.871 163.469 241.276 163.096C241.692 162.723 241.9 162.237 241.9 161.64C241.9 161.107 241.703 160.669 241.308 160.328C240.924 159.987 240.364 159.816 239.628 159.816H236.668V163.656H239.5ZM253.326 171H251.518V169.304C251.262 169.869 250.878 170.333 250.366 170.696C249.854 171.059 249.321 171.24 248.766 171.24C248.158 171.24 247.609 171.064 247.118 170.712C246.628 170.36 246.238 169.875 245.95 169.256C245.673 168.627 245.534 167.928 245.534 167.16V161.72H247.358V167.032C247.358 167.8 247.529 168.419 247.87 168.888C248.222 169.357 248.702 169.592 249.31 169.592C249.94 169.592 250.462 169.357 250.878 168.888C251.294 168.408 251.502 167.789 251.502 167.032V161.72H253.326V171ZM259.974 171.16C259.291 171.16 258.678 171 258.134 170.68C257.59 170.36 257.158 169.923 256.838 169.368C256.529 168.803 256.374 168.173 256.374 167.48V163.32H254.582V161.72H256.374V159.4H258.198V161.72H261.11V163.32H258.198V167.48C258.198 168.067 258.369 168.552 258.71 168.936C259.051 169.32 259.483 169.512 260.006 169.512C260.166 169.512 260.347 169.496 260.55 169.464C260.763 169.432 260.95 169.395 261.11 169.352V171C261.003 171.043 260.843 171.08 260.63 171.112C260.417 171.144 260.198 171.16 259.974 171.16ZM267.146 171.16C266.463 171.16 265.85 171 265.306 170.68C264.762 170.36 264.33 169.923 264.01 169.368C263.7 168.803 263.546 168.173 263.546 167.48V163.32H261.754V161.72H263.546V159.4H265.37V161.72H268.282V163.32H265.37V167.48C265.37 168.067 265.54 168.552 265.882 168.936C266.223 169.32 266.655 169.512 267.178 169.512C267.338 169.512 267.519 169.496 267.722 169.464C267.935 169.432 268.122 169.395 268.282 169.352V171C268.175 171.043 268.015 171.08 267.802 171.112C267.588 171.144 267.37 171.16 267.146 171.16ZM273.535 171.24C272.746 171.24 272.026 171.027 271.375 170.6C270.735 170.163 270.228 169.565 269.855 168.808C269.492 168.051 269.311 167.208 269.311 166.28C269.311 165.384 269.492 164.573 269.855 163.848C270.228 163.112 270.735 162.536 271.375 162.12C272.026 161.693 272.746 161.48 273.535 161.48C274.324 161.48 275.039 161.693 275.679 162.12C276.33 162.536 276.836 163.112 277.199 163.848C277.572 164.573 277.759 165.384 277.759 166.28C277.759 167.208 277.572 168.051 277.199 168.808C276.836 169.565 276.33 170.163 275.679 170.6C275.039 171.027 274.324 171.24 273.535 171.24ZM271.167 166.28C271.167 167.272 271.375 168.088 271.791 168.728C272.218 169.357 272.799 169.672 273.535 169.672C274.271 169.672 274.847 169.357 275.263 168.728C275.69 168.088 275.903 167.272 275.903 166.28C275.903 165.341 275.69 164.568 275.263 163.96C274.847 163.352 274.271 163.048 273.535 163.048C272.799 163.048 272.218 163.352 271.791 163.96C271.375 164.568 271.167 165.341 271.167 166.28ZM279.447 161.72H281.255V163.416C281.511 162.851 281.895 162.387 282.407 162.024C282.919 161.661 283.453 161.48 284.007 161.48C284.615 161.48 285.165 161.656 285.655 162.008C286.146 162.36 286.53 162.851 286.807 163.48C287.095 164.099 287.239 164.792 287.239 165.56V171H285.415V165.688C285.415 164.92 285.239 164.301 284.887 163.832C284.546 163.363 284.071 163.128 283.463 163.128C282.834 163.128 282.311 163.368 281.895 163.848C281.479 164.317 281.271 164.931 281.271 165.688V171H279.447V161.72Z" fill="#282828"/>
<rect x="335" y="140" width="49" height="49" rx="24.5" fill="white"/>
<rect x="333" y="138" width="53" height="53" rx="26.5" stroke="black" stroke-opacity="0.14" stroke-width="4"/>
<path d="M367.1 173.5L360.8 167.2C360.3 167.6 359.725 167.917 359.075 168.15C358.425 168.383 357.733 168.5 357 168.5C355.183 168.5 353.646 167.871 352.388 166.613C351.129 165.354 350.5 163.817 350.5 162C350.5 160.183 351.129 158.646 352.388 157.388C353.646 156.129 355.183 155.5 357 155.5C358.817 155.5 360.354 156.129 361.613 157.388C362.871 158.646 363.5 160.183 363.5 162C363.5 162.733 363.383 163.425 363.15 164.075C362.917 164.725 362.6 165.3 362.2 165.8L368.5 172.1L367.1 173.5ZM357 166.5C358.25 166.5 359.313 166.063 360.188 165.188C361.063 164.313 361.5 163.25 361.5 162C361.5 160.75 361.063 159.688 360.188 158.813C359.313 157.938 358.25 157.5 357 157.5C355.75 157.5 354.688 157.938 353.813 158.813C352.938 159.688 352.5 160.75 352.5 162C352.5 163.25 352.938 164.313 353.813 165.188C354.688 166.063 355.75 166.5 357 166.5Z" fill="#575757"/>
<rect x="400" y="140" width="116" height="50" rx="25" fill="white"/>
<rect x="398" y="138" width="120" height="54" rx="27" stroke="black" stroke-opacity="0.14" stroke-width="4"/>
<rect x="408" y="146" width="54" height="38" rx="19" fill="#146EF5"/>
<path d="M195.96 119.256C195.181 119.256 194.483 119.091 193.864 118.76C193.256 118.429 192.765 117.976 192.392 117.4C192.029 116.813 191.827 116.152 191.784 115.416L192.92 115.336C192.963 115.901 193.117 116.403 193.384 116.84C193.661 117.267 194.019 117.597 194.456 117.832C194.904 118.067 195.416 118.184 195.992 118.184C196.547 118.184 197.021 118.109 197.416 117.96C197.821 117.8 198.131 117.571 198.344 117.272C198.568 116.973 198.68 116.616 198.68 116.2C198.68 115.816 198.589 115.48 198.408 115.192C198.237 114.893 197.917 114.621 197.448 114.376C196.979 114.12 196.285 113.869 195.368 113.624C194.589 113.411 193.955 113.176 193.464 112.92C192.973 112.653 192.611 112.333 192.376 111.96C192.152 111.576 192.04 111.096 192.04 110.52C192.04 109.912 192.189 109.373 192.488 108.904C192.787 108.435 193.208 108.067 193.752 107.8C194.307 107.523 194.968 107.384 195.736 107.384C196.515 107.384 197.181 107.549 197.736 107.88C198.291 108.2 198.723 108.632 199.032 109.176C199.341 109.709 199.523 110.301 199.576 110.952L198.44 111.032C198.397 110.552 198.264 110.115 198.04 109.72C197.827 109.325 197.523 109.016 197.128 108.792C196.744 108.568 196.269 108.456 195.704 108.456C194.925 108.456 194.307 108.643 193.848 109.016C193.4 109.389 193.176 109.88 193.176 110.488C193.176 110.872 193.256 111.192 193.416 111.448C193.587 111.704 193.875 111.928 194.28 112.12C194.696 112.301 195.272 112.493 196.008 112.696C196.968 112.963 197.725 113.256 198.28 113.576C198.845 113.885 199.24 114.259 199.464 114.696C199.699 115.123 199.816 115.635 199.816 116.232C199.816 116.84 199.651 117.373 199.32 117.832C198.989 118.28 198.531 118.632 197.944 118.888C197.368 119.133 196.707 119.256 195.96 119.256ZM206.53 119C205.804 119 205.25 118.819 204.866 118.456C204.492 118.093 204.306 117.555 204.306 116.84V108.536H205.362V116.872C205.362 117.267 205.458 117.565 205.65 117.768C205.842 117.96 206.13 118.056 206.514 118.056H208.802V119H206.53ZM201.442 111.464V110.52H208.802V111.464H201.442ZM212.428 121.4V120.456H213.292C213.644 120.456 213.9 120.397 214.06 120.28C214.23 120.173 214.369 119.981 214.476 119.704L214.796 118.84H214.396L211.18 110.52H212.332L215.116 117.896L217.724 110.52H218.876L215.388 120.056C215.217 120.525 214.977 120.867 214.668 121.08C214.369 121.293 213.937 121.4 213.372 121.4H212.428ZM224.293 119V109.72C224.293 109.357 224.192 109.08 223.989 108.888C223.797 108.685 223.52 108.584 223.157 108.584H221.173V107.64H223.189C223.883 107.64 224.416 107.827 224.789 108.2C225.163 108.573 225.349 109.107 225.349 109.8V119H224.293ZM220.853 119V118.056H228.309V119H220.853ZM234.319 119.192C233.519 119.192 232.831 119.005 232.255 118.632C231.69 118.248 231.258 117.725 230.959 117.064C230.66 116.392 230.511 115.624 230.511 114.76C230.511 113.896 230.66 113.133 230.959 112.472C231.258 111.8 231.684 111.277 232.239 110.904C232.804 110.52 233.476 110.328 234.255 110.328C235.023 110.328 235.679 110.509 236.223 110.872C236.778 111.235 237.204 111.747 237.503 112.408C237.812 113.069 237.967 113.843 237.967 114.728V115.064H231.615C231.658 116.067 231.919 116.84 232.399 117.384C232.879 117.917 233.519 118.184 234.319 118.184C234.948 118.184 235.46 118.035 235.855 117.736C236.25 117.437 236.522 117.043 236.671 116.552L237.807 116.632C237.594 117.379 237.178 117.992 236.559 118.472C235.951 118.952 235.204 119.192 234.319 119.192ZM231.615 114.12H236.799C236.746 113.213 236.495 112.525 236.047 112.056C235.599 111.576 235.002 111.336 234.255 111.336C233.53 111.336 232.932 111.576 232.463 112.056C231.994 112.536 231.711 113.224 231.615 114.12ZM250.547 117.432L255.171 109.128L256.179 109.208L251.555 117.512L250.547 117.432ZM253.363 119.256C252.563 119.256 251.864 119.011 251.267 118.52C250.669 118.029 250.211 117.341 249.891 116.456C249.571 115.571 249.411 114.531 249.411 113.336C249.411 112.131 249.571 111.085 249.891 110.2C250.211 109.304 250.669 108.611 251.267 108.12C251.864 107.629 252.563 107.384 253.363 107.384C254.173 107.384 254.872 107.629 255.459 108.12C256.056 108.611 256.515 109.304 256.835 110.2C257.155 111.085 257.315 112.131 257.315 113.336C257.315 114.531 257.155 115.571 256.835 116.456C256.515 117.341 256.056 118.029 255.459 118.52C254.872 119.011 254.173 119.256 253.363 119.256ZM253.363 118.184C253.939 118.184 254.435 117.987 254.851 117.592C255.267 117.187 255.587 116.621 255.811 115.896C256.045 115.16 256.163 114.307 256.163 113.336C256.163 112.344 256.045 111.485 255.811 110.76C255.587 110.024 255.267 109.459 254.851 109.064C254.435 108.659 253.939 108.456 253.363 108.456C252.797 108.456 252.301 108.659 251.875 109.064C251.459 109.459 251.133 110.024 250.899 110.76C250.675 111.485 250.562 112.344 250.562 113.336C250.562 114.307 250.675 115.16 250.899 115.896C251.133 116.621 251.459 117.187 251.875 117.592C252.301 117.987 252.797 118.184 253.363 118.184ZM262.78 119V110.376H259.932V109.448H261.292C261.698 109.448 262.023 109.395 262.268 109.288C262.514 109.181 262.69 108.995 262.796 108.728C262.914 108.461 262.972 108.099 262.972 107.64H263.868V119H262.78ZM259.228 119V117.96H266.684V119H259.228Z" fill="black"/>
<path d="M296.603 115.56C296.336 115.56 296.091 115.496 295.867 115.368C295.643 115.229 295.467 115.053 295.339 114.84C295.211 114.616 295.147 114.371 295.147 114.104C295.147 113.827 295.211 113.581 295.339 113.368C295.467 113.144 295.643 112.968 295.867 112.84C296.091 112.712 296.336 112.648 296.603 112.648C296.88 112.648 297.126 112.712 297.339 112.84C297.563 112.968 297.739 113.144 297.867 113.368C297.995 113.581 298.059 113.827 298.059 114.104C298.059 114.371 297.995 114.616 297.867 114.84C297.739 115.053 297.563 115.229 297.339 115.368C297.126 115.496 296.88 115.56 296.603 115.56Z" fill="black"/>
<path d="M330.848 119L332.96 107.64H333.904L331.792 119H330.848ZM326.8 115.752L326.976 114.84H334.16L333.984 115.752H326.8ZM327.712 119L329.824 107.64H330.752L328.64 119H327.712ZM327.44 111.848L327.616 110.936H334.8L334.624 111.848H327.44ZM339.13 119V109.784C339.13 109.101 339.311 108.573 339.674 108.2C340.047 107.827 340.591 107.64 341.306 107.64H344.026V108.584H341.29C340.938 108.584 340.666 108.691 340.474 108.904C340.282 109.107 340.186 109.395 340.186 109.768V119H339.13ZM336.762 111.464V110.52H343.866V111.464H336.762ZM348.724 119V109.784C348.724 109.101 348.905 108.573 349.268 108.2C349.641 107.827 350.185 107.64 350.9 107.64H353.62V108.584H350.884C350.532 108.584 350.26 108.691 350.068 108.904C349.876 109.107 349.78 109.395 349.78 109.768V119H348.724ZM346.356 111.464V110.52H353.46V111.464H346.356ZM359.405 119V110.376H356.557V109.448H357.917C358.323 109.448 358.648 109.395 358.893 109.288C359.139 109.181 359.315 108.995 359.421 108.728C359.539 108.461 359.597 108.099 359.597 107.64H360.493V119H359.405ZM355.853 119V117.96H363.309V119H355.853ZM365.223 119C365.223 118.232 365.351 117.539 365.607 116.92C365.874 116.291 366.316 115.699 366.935 115.144C367.554 114.579 368.402 114.019 369.479 113.464C370.055 113.165 370.519 112.888 370.871 112.632C371.234 112.365 371.5 112.083 371.671 111.784C371.842 111.485 371.927 111.123 371.927 110.696C371.927 110.259 371.831 109.875 371.639 109.544C371.458 109.203 371.18 108.936 370.807 108.744C370.444 108.552 369.986 108.456 369.431 108.456C368.578 108.456 367.895 108.685 367.383 109.144C366.871 109.603 366.551 110.264 366.423 111.128L365.287 111.048C365.415 109.928 365.842 109.037 366.567 108.376C367.292 107.715 368.247 107.384 369.431 107.384C370.199 107.384 370.855 107.528 371.399 107.816C371.943 108.093 372.359 108.477 372.647 108.968C372.935 109.459 373.079 110.024 373.079 110.664C373.079 111.251 372.972 111.757 372.759 112.184C372.556 112.6 372.22 112.989 371.751 113.352C371.292 113.704 370.679 114.077 369.911 114.472C369.186 114.845 368.578 115.235 368.087 115.64C367.596 116.035 367.223 116.429 366.967 116.824C366.711 117.219 366.572 117.592 366.551 117.944H373.127V119H365.223ZM378.721 119.256C377.526 119.256 376.593 118.968 375.921 118.392C375.249 117.805 374.881 117.048 374.817 116.12L375.937 116.04C376.011 116.765 376.299 117.304 376.801 117.656C377.302 118.008 377.942 118.184 378.721 118.184C379.233 118.184 379.702 118.104 380.129 117.944C380.566 117.773 380.913 117.517 381.169 117.176C381.435 116.824 381.569 116.376 381.569 115.832C381.569 115.309 381.446 114.877 381.201 114.536C380.966 114.184 380.635 113.917 380.209 113.736C379.782 113.555 379.297 113.464 378.753 113.464H377.793V112.408H378.753C379.211 112.408 379.622 112.339 379.985 112.2C380.358 112.061 380.651 111.848 380.865 111.56C381.078 111.261 381.185 110.893 381.185 110.456C381.185 109.816 380.971 109.325 380.545 108.984C380.129 108.632 379.547 108.456 378.801 108.456C378.065 108.456 377.483 108.616 377.057 108.936C376.641 109.245 376.385 109.677 376.289 110.232L375.153 110.152C375.27 109.32 375.643 108.653 376.273 108.152C376.902 107.64 377.745 107.384 378.801 107.384C379.505 107.384 380.118 107.507 380.641 107.752C381.174 107.997 381.585 108.349 381.873 108.808C382.171 109.256 382.321 109.789 382.321 110.408C382.321 111.123 382.091 111.704 381.633 112.152C381.174 112.589 380.507 112.883 379.633 113.032V112.744C380.571 112.861 381.318 113.203 381.873 113.768C382.438 114.323 382.721 115.016 382.721 115.848C382.721 116.552 382.545 117.16 382.193 117.672C381.851 118.184 381.377 118.579 380.769 118.856C380.171 119.123 379.489 119.256 378.721 119.256ZM387.099 119V109.784C387.099 109.101 387.28 108.573 387.643 108.2C388.016 107.827 388.56 107.64 389.275 107.64H391.995V108.584H389.259C388.907 108.584 388.635 108.691 388.443 108.904C388.251 109.107 388.155 109.395 388.155 109.768V119H387.099ZM384.731 111.464V110.52H391.835V111.464H384.731Z" fill="black"/>
<path d="M422.603 115.56C422.336 115.56 422.091 115.496 421.867 115.368C421.643 115.229 421.467 115.053 421.339 114.84C421.211 114.616 421.147 114.371 421.147 114.104C421.147 113.827 421.211 113.581 421.339 113.368C421.467 113.144 421.643 112.968 421.867 112.84C422.091 112.712 422.336 112.648 422.603 112.648C422.88 112.648 423.126 112.712 423.339 112.84C423.563 112.968 423.739 113.144 423.867 113.368C423.995 113.581 424.059 113.827 424.059 114.104C424.059 114.371 423.995 114.616 423.867 114.84C423.739 115.053 423.563 115.229 423.339 115.368C423.126 115.496 422.88 115.56 422.603 115.56Z" fill="black"/>
<path d="M456.784 119.256C455.973 119.256 455.259 119.032 454.64 118.584C454.021 118.125 453.536 117.453 453.184 116.568C452.832 115.683 452.656 114.605 452.656 113.336C452.656 112.12 452.827 111.069 453.168 110.184C453.509 109.299 453.989 108.611 454.608 108.12C455.227 107.629 455.963 107.384 456.816 107.384C457.509 107.384 458.117 107.533 458.64 107.832C459.163 108.131 459.6 108.552 459.952 109.096C460.315 109.64 460.576 110.28 460.736 111.016L459.6 111.112C459.397 110.291 459.067 109.645 458.608 109.176C458.16 108.696 457.563 108.456 456.816 108.456C456.197 108.456 455.664 108.653 455.216 109.048C454.768 109.432 454.421 109.992 454.176 110.728C453.931 111.453 453.808 112.323 453.808 113.336C453.808 114.349 453.931 115.219 454.176 115.944C454.421 116.669 454.768 117.224 455.216 117.608C455.675 117.992 456.229 118.184 456.88 118.184C457.456 118.184 457.952 118.029 458.368 117.72C458.795 117.4 459.131 116.957 459.376 116.392C459.621 115.816 459.755 115.165 459.776 114.44H456.864V113.416H460.784V119H459.792L459.744 116.072L460.032 116.168C459.893 116.765 459.685 117.299 459.408 117.768C459.131 118.237 458.773 118.605 458.336 118.872C457.899 119.128 457.381 119.256 456.784 119.256ZM465.37 119V110.52H466.25L466.362 112.84L466.218 112.776C466.346 112.008 466.591 111.443 466.954 111.08C467.327 110.707 467.828 110.52 468.458 110.52H470.122V111.496H468.442C468.026 111.496 467.668 111.592 467.37 111.784C467.071 111.976 466.836 112.248 466.666 112.6C466.506 112.952 466.426 113.363 466.426 113.832V119H465.37ZM463.082 119V118.056H469.162V119H463.082ZM463.082 111.464V110.52H465.946V111.464H463.082ZM476.132 119.192C475.332 119.192 474.644 119.005 474.068 118.632C473.502 118.248 473.07 117.725 472.772 117.064C472.473 116.392 472.324 115.624 472.324 114.76C472.324 113.896 472.473 113.133 472.772 112.472C473.07 111.8 473.497 111.277 474.052 110.904C474.617 110.52 475.289 110.328 476.068 110.328C476.836 110.328 477.492 110.509 478.036 110.872C478.59 111.235 479.017 111.747 479.316 112.408C479.625 113.069 479.78 113.843 479.78 114.728V115.064H473.428C473.47 116.067 473.732 116.84 474.212 117.384C474.692 117.917 475.332 118.184 476.132 118.184C476.761 118.184 477.273 118.035 477.668 117.736C478.062 117.437 478.334 117.043 478.484 116.552L479.62 116.632C479.406 117.379 478.99 117.992 478.372 118.472C477.764 118.952 477.017 119.192 476.132 119.192ZM473.428 114.12H478.612C478.558 113.213 478.308 112.525 477.86 112.056C477.412 111.576 476.814 111.336 476.068 111.336C475.342 111.336 474.745 111.576 474.276 112.056C473.806 112.536 473.524 113.224 473.428 114.12ZM483.021 121.4V120.456H483.885C484.237 120.456 484.493 120.397 484.653 120.28C484.824 120.173 484.963 119.981 485.069 119.704L485.389 118.84H484.989L481.773 110.52H482.925L485.709 117.896L488.317 110.52H489.469L485.981 120.056C485.811 120.525 485.571 120.867 485.261 121.08C484.963 121.293 484.531 121.4 483.965 121.4H483.021ZM504.721 119.256C503.526 119.256 502.593 118.968 501.921 118.392C501.249 117.805 500.881 117.048 500.817 116.12L501.937 116.04C502.011 116.765 502.299 117.304 502.801 117.656C503.302 118.008 503.942 118.184 504.721 118.184C505.233 118.184 505.702 118.104 506.129 117.944C506.566 117.773 506.913 117.517 507.169 117.176C507.435 116.824 507.569 116.376 507.569 115.832C507.569 115.309 507.446 114.877 507.201 114.536C506.966 114.184 506.635 113.917 506.209 113.736C505.782 113.555 505.297 113.464 504.753 113.464H503.793V112.408H504.753C505.211 112.408 505.622 112.339 505.985 112.2C506.358 112.061 506.651 111.848 506.865 111.56C507.078 111.261 507.185 110.893 507.185 110.456C507.185 109.816 506.971 109.325 506.545 108.984C506.129 108.632 505.547 108.456 504.801 108.456C504.065 108.456 503.483 108.616 503.057 108.936C502.641 109.245 502.385 109.677 502.289 110.232L501.153 110.152C501.27 109.32 501.643 108.653 502.273 108.152C502.902 107.64 503.745 107.384 504.801 107.384C505.505 107.384 506.118 107.507 506.641 107.752C507.174 107.997 507.585 108.349 507.873 108.808C508.171 109.256 508.321 109.789 508.321 110.408C508.321 111.123 508.091 111.704 507.633 112.152C507.174 112.589 506.507 112.883 505.633 113.032V112.744C506.571 112.861 507.318 113.203 507.873 113.768C508.438 114.323 508.721 115.016 508.721 115.848C508.721 116.552 508.545 117.16 508.193 117.672C507.851 118.184 507.377 118.579 506.769 118.856C506.171 119.123 505.489 119.256 504.721 119.256ZM511.547 117.432L516.171 109.128L517.179 109.208L512.555 117.512L511.547 117.432ZM514.363 119.256C513.563 119.256 512.864 119.011 512.267 118.52C511.669 118.029 511.211 117.341 510.891 116.456C510.571 115.571 510.411 114.531 510.411 113.336C510.411 112.131 510.571 111.085 510.891 110.2C511.211 109.304 511.669 108.611 512.267 108.12C512.864 107.629 513.563 107.384 514.363 107.384C515.173 107.384 515.872 107.629 516.459 108.12C517.056 108.611 517.515 109.304 517.835 110.2C518.155 111.085 518.315 112.131 518.315 113.336C518.315 114.531 518.155 115.571 517.835 116.456C517.515 117.341 517.056 118.029 516.459 118.52C515.872 119.011 515.173 119.256 514.363 119.256ZM514.363 118.184C514.939 118.184 515.435 117.987 515.851 117.592C516.267 117.187 516.587 116.621 516.811 115.896C517.045 115.16 517.163 114.307 517.163 113.336C517.163 112.344 517.045 111.485 516.811 110.76C516.587 110.024 516.267 109.459 515.851 109.064C515.435 108.659 514.939 108.456 514.363 108.456C513.797 108.456 513.301 108.659 512.875 109.064C512.459 109.459 512.133 110.024 511.899 110.76C511.675 111.485 511.562 112.344 511.562 113.336C511.562 114.307 511.675 115.16 511.899 115.896C512.133 116.621 512.459 117.187 512.875 117.592C513.301 117.987 513.797 118.184 514.363 118.184ZM521.14 117.432L525.764 109.128L526.772 109.208L522.148 117.512L521.14 117.432ZM523.956 119.256C523.156 119.256 522.458 119.011 521.86 118.52C521.263 118.029 520.804 117.341 520.484 116.456C520.164 115.571 520.004 114.531 520.004 113.336C520.004 112.131 520.164 111.085 520.484 110.2C520.804 109.304 521.263 108.611 521.86 108.12C522.458 107.629 523.156 107.384 523.956 107.384C524.767 107.384 525.466 107.629 526.052 108.12C526.65 108.611 527.108 109.304 527.428 110.2C527.748 111.085 527.908 112.131 527.908 113.336C527.908 114.531 527.748 115.571 527.428 116.456C527.108 117.341 526.65 118.029 526.052 118.52C525.466 119.011 524.767 119.256 523.956 119.256ZM523.956 118.184C524.532 118.184 525.028 117.987 525.444 117.592C525.86 117.187 526.18 116.621 526.404 115.896C526.639 115.16 526.756 114.307 526.756 113.336C526.756 112.344 526.639 111.485 526.404 110.76C526.18 110.024 525.86 109.459 525.444 109.064C525.028 108.659 524.532 108.456 523.956 108.456C523.391 108.456 522.895 108.659 522.468 109.064C522.052 109.459 521.727 110.024 521.492 110.76C521.268 111.485 521.156 112.344 521.156 113.336C521.156 114.307 521.268 115.16 521.492 115.896C521.727 116.621 522.052 117.187 522.468 117.592C522.895 117.987 523.391 118.184 523.956 118.184Z" fill="black"/>
<rect x="20.5" y="16.5" width="679" height="261" stroke="#D9D9D9"/>
</svg>
